<?xml version="1.0" encoding="UTF-8"?>
<svg version="1.1" xmlns="http://www.w3.org/2000/svg" width="283" height="173">
<path d="M0 0 C93.39 0 186.78 0 283 0 C283 57.09 283 114.18 283 173 C189.61 173 96.22 173 0 173 C0 115.91 0 58.82 0 0 Z " fill="#060FA8" transform="translate(0,0)"/>
<path d="M0 0 C1.00023193 0.00523682 2.00046387 0.01047363 3.03100586 0.01586914 C4.1105957 0.0190918 5.19018555 0.02231445 6.30249023 0.02563477 C8.00695312 0.03820313 8.00695312 0.03820313 9.74584961 0.05102539 C11.45611328 0.05779297 11.45611328 0.05779297 13.20092773 0.06469727 C16.02845312 0.07652792 18.85587601 0.09301129 21.68334961 0.11352539 C21.69214897 1.35594246 21.69214897 1.35594246 21.7011261 2.62345886 C21.75907485 10.43636349 21.83116401 18.24898289 21.91906452 26.06161022 C21.96375641 30.07799961 22.00301495 34.09428785 22.02978516 38.11083984 C22.05583022 41.98841843 22.09624062 45.86560751 22.14653587 49.74294472 C22.16319656 51.22082988 22.17471583 52.69878241 22.18096352 54.17674828 C22.19061376 56.25008163 22.21868131 58.32242035 22.25097656 60.39550781 C22.26207962 61.57465256 22.27318268 62.7537973 22.28462219 63.96867371 C22.72098999 67.41040343 23.7780743 69.26122762 25.68334961 72.11352539 C25.68334961 72.77352539 25.68334961 73.43352539 25.68334961 74.11352539 C32.7589046 77.11527599 39.05383406 77.46208194 46.68334961 77.11352539 C47.17834961 75.62852539 47.17834961 75.62852539 47.68334961 74.11352539 C49.16834961 72.96883789 49.16834961 72.96883789 50.68334961 71.80102539 C53.32571981 69.72758657 53.64368698 69.26367678 54.55834961 65.80102539 C54.59959961 64.91415039 54.64084961 64.02727539 54.68334961 63.11352539 C55.34334961 63.11352539 56.00334961 63.11352539 56.68334961 63.11352539 C56.681129 62.36406143 56.67890839 61.61459747 56.67662048 60.84242249 C56.65661781 53.79370248 56.6413756 46.74499224 56.63153744 39.69625187 C56.62630959 36.0720658 56.61921374 32.44790309 56.60791016 28.82373047 C56.59707777 25.32892564 56.59107203 21.83414336 56.58847237 18.33932304 C56.5857141 16.3511315 56.57790273 14.36294908 56.5700531 12.37477112 C56.56997757 11.17360153 56.56990204 9.97243195 56.56982422 8.73486328 C56.56760361 7.67119034 56.565383 6.6075174 56.56309509 5.51161194 C56.68334961 3.11352539 56.68334961 3.11352539 57.68334961 2.11352539 C60.17288658 2.01318673 62.63469914 1.97734596 65.12475586 1.98413086 C66.29299393 1.98150238 66.29299393 1.98150238 67.48483276 1.9788208 C70.07186072 1.9744019 72.6588209 1.9773404 75.24584961 1.98071289 C77.03564467 1.98003986 78.82543963 1.97906985 80.61523438 1.97781372 C84.37134672 1.9763367 88.12743533 1.97849145 91.88354492 1.9831543 C96.70935454 1.98885159 101.53510856 1.98557261 106.36091614 1.97958183 C110.05823184 1.97597634 113.75553425 1.97711475 117.45285034 1.97970963 C119.23273729 1.98037893 121.01262543 1.97955036 122.79251099 1.97723007 C125.27568783 1.97470374 127.75877335 1.97854385 130.24194336 1.98413086 C130.98483612 1.98210663 131.72772888 1.9800824 132.49313354 1.97799683 C137.56908699 1.99926277 137.56908699 1.99926277 138.68334961 3.11352539 C138.68334961 8.39352539 138.68334961 13.67352539 138.68334961 19.11352539 C118.55334961 19.11352539 98.42334961 19.11352539 77.68334961 19.11352539 C78.01334961 25.71352539 78.34334961 32.31352539 78.68334961 39.11352539 C96.50334961 39.44352539 114.32334961 39.77352539 132.68334961 40.11352539 C132.68334961 46.05352539 132.68334961 51.99352539 132.68334961 58.11352539 C114.53334961 58.11352539 96.38334961 58.11352539 77.68334961 58.11352539 C77.68334961 60.42352539 77.68334961 62.73352539 77.68334961 65.11352539 C77.02334961 65.11352539 76.36334961 65.11352539 75.68334961 65.11352539 C75.72975586 65.67040039 75.77616211 66.22727539 75.82397461 66.80102539 C76.12011784 73.06233935 74.82833303 76.70808514 71.68334961 82.11352539 C71.02334961 82.11352539 70.36334961 82.11352539 69.68334961 82.11352539 C69.58022461 82.75290039 69.47709961 83.39227539 69.37084961 84.05102539 C69.14397461 84.73165039 68.91709961 85.41227539 68.68334961 86.11352539 C67.19834961 86.60852539 67.19834961 86.60852539 65.68334961 87.11352539 C64.47452865 89.11369005 64.47452865 89.11369005 63.68334961 91.11352539 C62.03334961 91.11352539 60.38334961 91.11352539 58.68334961 91.11352539 C58.18834961 92.59852539 58.18834961 92.59852539 57.68334961 94.11352539 C51.03010033 98.16695033 44.09583608 98.71361999 36.49584961 98.55102539 C35.07755859 98.56166016 35.07755859 98.56166016 33.63061523 98.57250977 C27.84838098 98.52012716 23.83997081 97.71192672 18.68334961 95.11352539 C15.90446348 94.42212017 15.90446348 94.42212017 13.68334961 94.11352539 C13.68334961 93.45352539 13.68334961 92.79352539 13.68334961 92.11352539 C13.02334961 92.11352539 12.36334961 92.11352539 11.68334961 92.11352539 C11.68334961 91.45352539 11.68334961 90.79352539 11.68334961 90.11352539 C11.10584961 89.88665039 10.52834961 89.65977539 9.93334961 89.42602539 C4.32085227 86.15206861 2.71704336 80.92407897 0.68334961 75.11352539 C0.35334961 74.78352539 0.02334961 74.45352539 -0.31665039 74.11352539 C-0.35728871 72.44735424 -0.35937139 70.77964444 -0.31665039 69.11352539 C-0.97665039 69.11352539 -1.63665039 69.11352539 -2.31665039 69.11352539 C-3.21407938 65.27494116 -3.4432096 61.71678623 -3.44604492 57.77856445 C-3.44919708 56.52086243 -3.45234924 55.2631604 -3.45559692 53.96734619 C-3.4538077 52.6046139 -3.45175688 51.24188193 -3.44946289 49.87915039 C-3.45013681 48.47621646 -3.45110758 47.07328265 -3.45236206 45.67034912 C-3.45383292 42.73847333 -3.45170285 39.80662809 -3.44702148 36.87475586 C-3.44130344 33.1095247 -3.44462011 29.3443645 -3.45059395 25.57913589 C-3.45419812 22.68647725 -3.45306201 19.79383559 -3.45046616 16.90117645 C-3.44979758 15.51204164 -3.45062291 14.12290531 -3.45294571 12.73377228 C-3.4554721 10.79948454 -3.45094188 8.8651914 -3.44604492 6.9309082 C-3.44524933 5.82902161 -3.44445374 4.72713501 -3.44363403 3.59185791 C-3.27782047 0.35568405 -3.22745797 0.15815871 0 0 Z " fill="#FBFBFD" transform="translate(70.316650390625,35.886474609375)"/>
<path d="M0 0 C93.39 0 186.78 0 283 0 C283 57.09 283 114.18 283 173 C189.61 173 96.22 173 0 173 C0 115.91 0 58.82 0 0 Z M2 13 C1.72271471 16.20254015 1.72271471 16.20254015 1.8046875 19.85546875 C1.8075174 20.51710526 1.81034729 21.17874176 1.81326294 21.86042786 C1.82444082 23.96963737 1.84954019 26.07841925 1.875 28.1875 C1.88503293 29.61913448 1.89415824 31.05077564 1.90234375 32.48242188 C1.92437205 35.98841977 1.95888515 39.49416813 2 43 C3.65 43.33 5.3 43.66 7 44 C7.3125 46.8125 7.3125 46.8125 7 50 C6.175 50.4125 5.35 50.825 4.5 51.25 C3.675 51.8275 2.85 52.405 2 53 C1.39375602 56.42360738 1.39375602 56.42360738 1.6875 60.1875 C1.73261719 61.45980469 1.77773438 62.73210938 1.82421875 64.04296875 C1.88222656 65.01878906 1.94023437 65.99460938 2 67 C2.68707031 67.23074219 3.37414062 67.46148437 4.08203125 67.69921875 C11.57069726 70.40970874 11.57069726 70.40970874 14 73.75 C14.33 74.4925 14.66 75.235 15 76 C15.66 76 16.32 76 17 76 C19.0657655 83.3393457 18.69837209 90.24461759 15.265625 97.0859375 C13.30024168 100.05827646 11.1853922 101.47101174 8 103 C5.03 103.495 5.03 103.495 2 104 C2 108.29 2 112.58 2 117 C3.32 117.66 4.64 118.32 6 119 C6.75 121.625 6.75 121.625 7 124 C5.02 124.99 3.04 125.98 1 127 C0.9753015 130.95099928 0.95714077 134.90196874 0.94506836 138.85302734 C0.93755964 140.85906551 0.9248553 142.86508202 0.91210938 144.87109375 C0.90888672 146.12792969 0.90566406 147.38476562 0.90234375 148.6796875 C0.89710693 149.84226074 0.89187012 151.00483398 0.88647461 152.20263672 C0.80643717 154.95502192 0.80643717 154.95502192 2 157 C2.66 157 3.32 157 4 157 C4.268125 157.598125 4.53625 158.19625 4.8125 158.8125 C7.39849622 163.57617725 11.03417036 165.3091484 15.95703125 167.20703125 C21.5279772 168.65876684 27.29747468 168.65916287 33 168 C33.66 167.34 34.32 166.68 35 166 C35 164.68 35 163.36 35 162 C35.66 162 36.32 162 37 162 C39.32590854 158.36576791 39.16265833 155.22911669 39 151 C40.65 151 42.3 151 44 151 C43.938125 151.70125 43.87625 152.4025 43.8125 153.125 C44.04488737 156.68827295 45.35831708 158.84291745 47 162 C47.69324738 164.32557454 48.36336603 166.65829419 49 169 C72.38257075 169.18680323 95.76502984 169.32791683 119.14819622 169.41449738 C130.00521969 169.45576521 140.86177979 169.5120364 151.71850586 169.60351562 C161.18021553 169.68320244 170.64158969 169.73485361 180.1036256 169.75270796 C185.11486738 169.76314655 190.12514923 169.78771096 195.1360836 169.84584045 C199.85181417 169.90010274 204.56618867 169.91690113 209.28220177 169.90486145 C211.01367562 169.90706419 212.74519433 169.92300379 214.47639847 169.9536438 C223.33001734 170.49533533 223.33001734 170.49533533 231.11904335 167.25462341 C232.45766727 165.17566754 233.28246173 163.35747878 234 161 C234.37769531 160.0925 234.75539062 159.185 235.14453125 158.25 C235.36496094 157.5075 235.58539063 156.765 235.8125 156 C236.04582031 155.236875 236.27914062 154.47375 236.51953125 153.6875 C236.67808594 153.130625 236.83664063 152.57375 237 152 C237.66 152 238.32 152 239 152 C239.103125 152.680625 239.20625 153.36125 239.3125 154.0625 C240.14725019 157.62915989 241.49472754 160.66222194 243 164 C243.66 164 244.32 164 245 164 C245 165.32 245 166.64 245 168 C247.6881249 168.08164159 250.373723 168.14079668 253.0625 168.1875 C253.81466797 168.21263672 254.56683594 168.23777344 255.34179688 168.26367188 C260.6846774 168.33305993 264.2276523 167.41353126 269 165 C269.66 164.67 270.32 164.34 271 164 C271 163.34 271 162.68 271 162 C271.66 162 272.32 162 273 162 C273 160.68 273 159.36 273 158 C273.99 157.67 274.98 157.34 276 157 C277.28247455 153.80736898 277.11500854 150.54167449 277.09765625 147.140625 C277.09282227 145.46806641 277.09282227 145.46806641 277.08789062 143.76171875 C277.07951172 142.60285156 277.07113281 141.44398438 277.0625 140.25 C277.05573242 138.48849609 277.05573242 138.48849609 277.04882812 136.69140625 C277.03705094 133.79421928 277.02060326 130.89713546 277 128 C275.68 128 274.36 128 273 128 C272.67 125.03 272.34 122.06 272 119 C273.98 118.34 275.96 117.68 278 117 C278 112.71 278 108.42 278 104 C276.246875 103.401875 274.49375 102.80375 272.6875 102.1875 C268.07113439 100.61250467 265.53087444 99.29887165 262.83203125 95.24609375 C261.67889688 92.13317232 261.6981045 89.37463977 261.6875 86.0625 C261.67074219 84.85722656 261.65398437 83.65195313 261.63671875 82.41015625 C262.02548988 78.76072403 263.01211743 77.01591683 265 74 C265 73.01 265 72.02 265 71 C265.598125 70.87625 266.19625 70.7525 266.8125 70.625 C269.26231348 70.04524015 269.26231348 70.04524015 272 68 C273.98 67.67 275.96 67.34 278 67 C278 62.71 278 58.42 278 54 C276.35 54 274.7 54 273 54 C272.34 51.03 271.68 48.06 271 45 C271.99 45 272.98 45 274 45 C274 44.34 274 43.68 274 43 C275.32 43 276.64 43 278 43 C278.14612187 38.50034563 278.2343523 34.00130762 278.3125 29.5 C278.35439453 28.2315625 278.39628906 26.963125 278.43945312 25.65625 C278.52652712 18.96896738 278.39511758 13.99862863 274.47338867 8.43554688 C272.79649252 6.8017193 271.09143536 6.02129196 269 5 C268.67 4.34 268.34 3.68 268 3 C260.41 3 252.82 3 245 3 C242.77939635 7.88832982 242.77939635 7.88832982 240.57275391 12.78295898 C238.22222222 17.88888889 238.22222222 17.88888889 236 19 C236 18.01 236 17.02 236 16 C235.34 16 234.68 16 234 16 C234 14.35 234 12.7 234 11 C233.34 11 232.68 11 232 11 C231.87625 10.236875 231.7525 9.47375 231.625 8.6875 C231.11897208 5.79732864 231.11897208 5.79732864 229 3 C226.54618335 2.70522041 224.34400906 2.60850833 221.88803101 2.63923645 C221.14719918 2.63667318 220.40636735 2.6341099 219.64308608 2.63146895 C217.14774454 2.62650701 214.65300112 2.6430631 212.15771484 2.65942383 C210.37419143 2.66026958 208.59066697 2.65979597 206.80714417 2.65809631 C201.95402079 2.65723292 197.10111828 2.67491427 192.2480464 2.69581819 C187.18048175 2.71452773 182.11291246 2.7163309 177.0453186 2.71989441 C167.44406745 2.72923174 157.84291835 2.75386831 148.24171221 2.78394288 C137.31323032 2.81743444 126.38474365 2.83395969 115.45622325 2.84902918 C92.97075693 2.88041643 70.48538847 2.93381147 48 3 C46.35 7.95 44.7 12.9 43 18 C42.01 18 41.02 18 40 18 C39.51171875 16.01432292 39.0234375 14.02864583 38.53515625 12.04296875 C38.08989295 10.34316798 37.55566015 8.66698046 37 7 C36.34 7 35.68 7 35 7 C34.505 5.02 34.505 5.02 34 3 C30.50088305 2.79462097 27.00333334 2.67170059 23.5 2.5625 C22.51773437 2.50384766 21.53546875 2.44519531 20.5234375 2.38476562 C11.499576 2.17420886 6.92622438 5.61066342 2 13 Z " fill="#F4F5FA" transform="translate(0,0)"/>
<path d="M0 0 C1.02083176 0.00015106 2.04166351 0.00030212 3.09342957 0.00045776 C4.19350845 0.01078033 5.29358734 0.02110291 6.42700195 0.03173828 C8.11863213 0.03598312 8.11863213 0.03598312 9.84443665 0.04031372 C13.45149278 0.05152162 17.05830193 0.07662755 20.6652832 0.10205078 C23.108639 0.11207978 25.55199867 0.12120577 27.99536133 0.12939453 C33.98959733 0.15146299 39.98364837 0.18599723 45.9777832 0.22705078 C45.9777832 6.49705078 45.9777832 12.76705078 45.9777832 19.22705078 C25.5177832 19.22705078 5.0577832 19.22705078 -16.0222168 19.22705078 C-14.0222168 14.22705078 -14.0222168 14.22705078 -12.5847168 12.41455078 C-10.69148265 9.76402297 -9.84486717 7.1199359 -8.8659668 4.03173828 C-6.98767193 0.01427426 -3.93402636 -0.01942729 0 0 Z " fill="#EEEEF7" transform="translate(165.022216796875,114.77294921875)"/>
<path d="M0 0 C53.52483815 -0.1072642 107.03965606 0.12593982 160.5625 0.5 C161.41822082 0.50597372 162.27394164 0.51194743 163.1555934 0.51810217 C185.43709887 0.67374774 207.71856664 0.83435405 230 1 C230.33 2.65 230.66 4.3 231 6 C230.01 5.505 230.01 5.505 229 5 C229 4.34 229 3.68 229 3 C169.27 3 109.54 3 48 3 C47.67 4.98 47.34 6.96 47 9 C46.36490737 10.81090669 45.67898885 12.60499436 44.9375 14.375 C44.57527344 15.24898437 44.21304688 16.12296875 43.83984375 17.0234375 C43.56269531 17.67570312 43.28554688 18.32796875 43 19 C41.68 18.67 40.36 18.34 39 18 C38.34 14.37 37.68 10.74 37 7 C36.34 7 35.68 7 35 7 C34.505 5.515 34.505 5.515 34 4 C30.47980654 3.8243731 26.96075065 3.71871534 23.4375 3.625 C22.44685547 3.57472656 21.45621094 3.52445312 20.43554688 3.47265625 C15.32783502 3.3708414 11.92342995 3.47090583 7.91015625 6.8359375 C3.71934394 10.98997132 2.7350968 13.96367633 2.5859375 19.85546875 C2.56657135 20.51710526 2.5472052 21.17874176 2.5272522 21.86042786 C2.46757313 23.96932164 2.42111913 26.07827037 2.375 28.1875 C2.33680934 29.61916415 2.29775697 31.05080559 2.2578125 32.48242188 C2.16188227 35.98807312 2.07780803 39.49389445 2 43 C3.65 43.33 5.3 43.66 7 44 C7.6875 46.8125 7.6875 46.8125 8 50 C6.75 51.875 6.75 51.875 5 53 C4.01 53 3.02 53 2 53 C2 57.62 2 62.24 2 67 C1.34 67 0.68 67 0 67 C0 44.89 0 22.78 0 0 Z " fill="#E1E3F7" transform="translate(0,0)"/>
<path d="M0 0 C1.17280014 0.00539291 1.17280014 0.00539291 2.36929321 0.01089478 C3.18873917 0.01074875 4.00818512 0.01060272 4.85246277 0.01045227 C7.57416385 0.01115164 10.29579737 0.01894515 13.01748657 0.02676392 C14.89935773 0.02862801 16.78122938 0.03005195 18.6631012 0.03105164 C23.62631561 0.0348775 28.58950096 0.04470836 33.55270386 0.05575562 C38.61322639 0.06596827 43.67375359 0.07054894 48.73428345 0.07559204 C58.67114726 0.08633057 68.60798183 0.10392792 78.54483032 0.12442017 C78.54483032 7.71442017 78.54483032 15.30442017 78.54483032 23.12442017 C59.40483032 23.12442017 40.26483032 23.12442017 20.54483032 23.12442017 C20.54483032 27.74442017 20.54483032 32.36442017 20.54483032 37.12442017 C22.32929565 37.11656494 22.32929565 37.11656494 24.14981079 37.10855103 C28.60406733 37.09031942 33.05832063 37.07892237 37.51260376 37.06948853 C39.43285682 37.06448955 41.35310613 37.05768817 43.27334595 37.04898071 C46.04874604 37.03671933 48.82409539 37.03114736 51.59951782 37.02676392 C52.44472992 37.02160263 53.28994202 37.01644135 54.1607666 37.01112366 C59.97424555 37.01058823 65.79589699 37.19481756 71.54483032 38.12442017 C76.50018657 43.07977642 72.54483032 52.11648815 72.54483032 59.12442017 C54.39483032 59.12442017 36.24483032 59.12442017 17.54483032 59.12442017 C17.54483032 61.76442017 17.54483032 64.40442017 17.54483032 67.12442017 C16.88483032 67.12442017 16.22483032 67.12442017 15.54483032 67.12442017 C15.54483032 68.77442017 15.54483032 70.42442017 15.54483032 72.12442017 C15.21483032 72.12442017 14.88483032 72.12442017 14.54483032 72.12442017 C14.54483032 69.81442017 14.54483032 67.50442017 14.54483032 65.12442017 C15.20483032 65.12442017 15.86483032 65.12442017 16.54483032 65.12442017 C16.54483032 62.81442017 16.54483032 60.50442017 16.54483032 58.12442017 C34.69483032 58.12442017 52.84483032 58.12442017 71.54483032 58.12442017 C71.54483032 52.18442017 71.54483032 46.24442017 71.54483032 40.12442017 C69.91424683 40.12965698 68.28366333 40.1348938 66.60366821 40.14028931 C60.57860865 40.15833102 54.55355149 40.16984913 48.5284729 40.17935181 C45.91616413 40.18439393 43.30385821 40.19122742 40.69155884 40.19985962 C36.94602764 40.21193053 33.20053361 40.21764952 29.45498657 40.22207642 C28.27896378 40.2272377 27.10294098 40.23239899 25.89128113 40.23771667 C24.81023605 40.23779221 23.72919098 40.23786774 22.61538696 40.23794556 C21.65830338 40.24016617 20.70121979 40.24238678 19.71513367 40.24467468 C17.54483032 40.12442017 17.54483032 40.12442017 16.54483032 39.12442017 C16.54483032 32.52442017 16.54483032 25.92442017 16.54483032 19.12442017 C36.67483032 19.12442017 56.80483032 19.12442017 77.54483032 19.12442017 C77.21483032 13.84442017 76.88483032 8.56442017 76.54483032 3.12442017 C50.14483032 3.12442017 23.74483032 3.12442017 -3.45516968 3.12442017 C-3.78516968 22.92442017 -4.11516968 42.72442017 -4.45516968 63.12442017 C-5.11516968 63.12442017 -5.77516968 63.12442017 -6.45516968 63.12442017 C-6.45516968 65.10442017 -6.45516968 67.08442017 -6.45516968 69.12442017 C-7.44516968 69.61942017 -7.44516968 69.61942017 -8.45516968 70.12442017 C-8.38624512 69.48960724 -8.31732056 68.85479431 -8.24630737 68.20074463 C-7.4807173 60.59292817 -7.25975166 53.04040603 -7.17391968 45.39785767 C-7.13617276 42.79499289 -7.09841195 40.19212831 -7.06063843 37.58926392 C-7.015137 34.20569955 -6.97189618 30.82210673 -6.92910767 27.43850708 C-6.87022222 22.79987127 -6.80419857 18.16137396 -6.73641968 13.52285767 C-6.72284424 12.29384735 -6.7092688 11.06483704 -6.69528198 9.79858398 C-6.67856445 8.67296051 -6.66184692 7.54733704 -6.6446228 6.38760376 C-6.63209473 5.39263885 -6.61956665 4.39767395 -6.60665894 3.37255859 C-6.31172634 -1.00431479 -3.79550994 0.00736772 0 0 Z " fill="#4F54BA" transform="translate(131.45516967773438,35.875579833984375)"/>
<path d="M0 0 C6.16585775 0 9.14018601 0.7121488 13.875 4.5 C15 6 15 6 15 9 C15.66 9 16.32 9 17 9 C19.63760831 13.61053933 19.63070325 17.80239731 19 23 C17.55059678 27.65522612 15.7843048 31.80669494 12 35 C9 36 9 36 0 36 C0 24.12 0 12.24 0 0 Z " fill="#F6F7FB" transform="translate(0,67)"/>
<path d="M0 0 C1.00023193 0.00523682 2.00046387 0.01047363 3.03100586 0.01586914 C4.1105957 0.0190918 5.19018555 0.02231445 6.30249023 0.02563477 C8.00695312 0.03820313 8.00695312 0.03820313 9.74584961 0.05102539 C11.45611328 0.05779297 11.45611328 0.05779297 13.20092773 0.06469727 C16.02845312 0.07652792 18.85587601 0.09301129 21.68334961 0.11352539 C21.69365707 0.94402405 21.70396454 1.77452271 21.71458435 2.63018799 C21.81257418 10.45799983 21.91509081 18.28573649 22.02268887 26.11342239 C22.07784604 30.13768058 22.13125443 34.16194612 22.18066406 38.1862793 C22.22841402 42.0701903 22.28076049 45.95401467 22.33629036 49.83782196 C22.35666579 51.31935213 22.37538672 52.80090601 22.39242363 54.28247833 C22.41657446 56.35808372 22.44661393 58.43352678 22.47802734 60.5090332 C22.50134377 62.28108124 22.50134377 62.28108124 22.52513123 64.08892822 C22.65708338 66.61140442 22.94623401 68.71196043 23.68334961 71.11352539 C23.02334961 71.11352539 22.36334961 71.11352539 21.68334961 71.11352539 C21.35334961 69.13352539 21.02334961 67.15352539 20.68334961 65.11352539 C20.02334961 65.11352539 19.36334961 65.11352539 18.68334961 65.11352539 C18.68334961 44.32352539 18.68334961 23.53352539 18.68334961 2.11352539 C12.74334961 2.11352539 6.80334961 2.11352539 0.68334961 2.11352539 C0.68334961 24.22352539 0.68334961 46.33352539 0.68334961 69.11352539 C1.34334961 69.11352539 2.00334961 69.11352539 2.68334961 69.11352539 C2.82772461 70.24790039 2.97209961 71.38227539 3.12084961 72.55102539 C3.29506439 75.9212974 3.29506439 75.9212974 4.68334961 77.11352539 C4.72398793 78.77969654 4.72607061 80.44740634 4.68334961 82.11352539 C5.34334961 82.11352539 6.00334961 82.11352539 6.68334961 82.11352539 C7.74106699 83.74417303 8.73608007 85.41633413 9.68334961 87.11352539 C10.34334961 88.10352539 11.00334961 89.09352539 11.68334961 90.11352539 C7.83520003 88.60175234 5.97980874 86.52117442 3.68334961 83.11352539 C2.56010408 80.47936552 1.63041783 77.8194346 0.68334961 75.11352539 C0.35334961 74.78352539 0.02334961 74.45352539 -0.31665039 74.11352539 C-0.35728871 72.44735424 -0.35937139 70.77964444 -0.31665039 69.11352539 C-0.97665039 69.11352539 -1.63665039 69.11352539 -2.31665039 69.11352539 C-3.21407938 65.27494116 -3.4432096 61.71678623 -3.44604492 57.77856445 C-3.44919708 56.52086243 -3.45234924 55.2631604 -3.45559692 53.96734619 C-3.4538077 52.6046139 -3.45175688 51.24188193 -3.44946289 49.87915039 C-3.45013681 48.47621646 -3.45110758 47.07328265 -3.45236206 45.67034912 C-3.45383292 42.73847333 -3.45170285 39.80662809 -3.44702148 36.87475586 C-3.44130344 33.1095247 -3.44462011 29.3443645 -3.45059395 25.57913589 C-3.45419812 22.68647725 -3.45306201 19.79383559 -3.45046616 16.90117645 C-3.44979758 15.51204164 -3.45062291 14.12290531 -3.45294571 12.73377228 C-3.4554721 10.79948454 -3.45094188 8.8651914 -3.44604492 6.9309082 C-3.44524933 5.82902161 -3.44445374 4.72713501 -3.44363403 3.59185791 C-3.27782047 0.35568405 -3.22745797 0.15815871 0 0 Z " fill="#979BD9" transform="translate(70.316650390625,35.886474609375)"/>
<path d="M0 0 C0.33 0.99 0.66 1.98 1 3 C2.32 2.67 3.64 2.34 5 2 C5 2.66 5 3.32 5 4 C5.99 4.495 5.99 4.495 7 5 C6.67 7.97 6.34 10.94 6 14 C6.66 14 7.32 14 8 14 C8 15.65 8 17.3 8 19 C14.27 18.67 20.54 18.34 27 18 C27 17.34 27 16.68 27 16 C28.32 16.33 29.64 16.66 31 17 C25.4560148 19.80512399 21.22729121 20.3935213 15.0625 20.1875 C13.89364258 20.16719727 13.89364258 20.16719727 12.70117188 20.14648438 C10.80047596 20.11150224 8.90014166 20.05770959 7 20 C7 18.68 7 17.36 7 16 C6.34 16 5.68 16 5 16 C4.32645501 14.56570999 3.66140299 13.12742943 3 11.6875 C2.62875 10.88699219 2.2575 10.08648437 1.875 9.26171875 C1 7 1 7 1 4 C0.34 4 -0.32 4 -1 4 C-1.18175781 4.59167969 -1.36351562 5.18335938 -1.55078125 5.79296875 C-2.9580473 10.21683586 -4.37790494 14.12385947 -7 18 C-7.99 19.485 -7.99 19.485 -9 21 C-11.4415753 21.29480735 -13.63027634 21.3915097 -16.07400513 21.36076355 C-16.8107534 21.36332682 -17.54750168 21.3658901 -18.30657566 21.36853105 C-20.78809889 21.37349289 -23.26902063 21.35693709 -25.75048828 21.34057617 C-27.5241596 21.33973042 -29.29783198 21.34020403 -31.07150269 21.34190369 C-35.89776792 21.34276708 -40.72381105 21.32508587 -45.55002451 21.30418181 C-50.58956188 21.28547212 -55.62910391 21.28366909 -60.66867065 21.28010559 C-70.21679813 21.2707683 -79.76482298 21.24613179 -89.31290519 21.21605712 C-100.18092866 21.18256542 -111.04895693 21.16604028 -121.91701913 21.15097082 C-144.27806972 21.11958367 -166.63902912 21.06679053 -189 21 C-189.33 19.35 -189.66 17.7 -190 16 C-189.01 16 -188.02 16 -187 16 C-187 16.99 -187 17.98 -187 19 C-128.26 19 -69.52 19 -9 19 C-9 16.36 -9 13.72 -9 11 C-7.79296875 8.06640625 -7.79296875 8.06640625 -6.1875 5.5625 C-5.40439453 4.29599609 -5.40439453 4.29599609 -4.60546875 3.00390625 C-3 1 -3 1 0 0 Z " fill="#4F4E99" transform="translate(238,148)"/>
<path d="M0 0 C1.46972851 0.0101695 2.93946039 0.01986016 4.40919495 0.02911377 C8.3608849 0.05532781 12.3124943 0.08815843 16.26412296 0.12226367 C20.40804846 0.1568745 24.55201662 0.18528012 28.69598389 0.21437073 C36.52609168 0.27026718 44.35614605 0.33166739 52.18619609 0.39509207 C61.10767612 0.467086 70.02919863 0.53287264 78.95072985 0.59816253 C97.28719557 0.73249094 115.62359421 0.87453442 133.95996094 1.02172852 C133.95996094 1.68172852 133.95996094 2.34172852 133.95996094 3.02172852 C134.94996094 3.51672852 134.94996094 3.51672852 135.95996094 4.02172852 C77.21996094 4.02172852 18.47996094 4.02172852 -42.04003906 4.02172852 C-38.76858677 1.84076032 -37.4323451 1.69827351 -33.60253906 1.45922852 C-32.65507813 1.39606445 -31.70761719 1.33290039 -30.73144531 1.26782227 C-29.51328125 1.18661133 -28.29511719 1.10540039 -27.04003906 1.02172852 C-25.82395399 0.90192926 -25.82395399 0.90192926 -24.58330154 0.77970982 C-16.37362841 -0.00825289 -8.24043392 -0.07961287 0 0 Z " fill="#0A077C" transform="translate(93.0400390625,162.978271484375)"/>
<path d="M0 0 C23.54759483 -0.11669142 47.09514648 -0.20491857 70.64297199 -0.25906086 C81.57612574 -0.28486589 92.50910007 -0.32006033 103.44213867 -0.37719727 C112.96901684 -0.42696185 122.4957651 -0.45927427 132.02276963 -0.47044247 C137.06945922 -0.47697301 142.1157771 -0.49236922 147.16234779 -0.52865028 C151.9090427 -0.56250011 156.65521155 -0.57307534 161.40201569 -0.56553841 C163.14718417 -0.5669179 164.89236962 -0.57691596 166.63743401 -0.59602737 C169.0148681 -0.62079471 171.39029901 -0.61496689 173.76777649 -0.60127258 C174.46329961 -0.61583679 175.15882272 -0.630401 175.8754223 -0.64540654 C177.80411243 -0.61523914 177.80411243 -0.61523914 181 0 C183.37829937 2.86329544 184 4.27101813 184 8 C184.66 8 185.32 8 186 8 C186 9.65 186 11.3 186 13 C186.66 13 187.32 13 188 13 C188 13.99 188 14.98 188 16 C191.31939397 14.34030301 192.1635919 10.69596481 193.625 7.4375 C193.94984375 6.72658203 194.2746875 6.01566406 194.609375 5.28320312 C195.41190993 3.52470748 196.20668959 1.76267633 197 0 C200.79152334 -0.0867982 204.58279296 -0.14032207 208.375 -0.1875 C209.99535156 -0.22520508 209.99535156 -0.22520508 211.6484375 -0.26367188 C212.6796875 -0.27333984 213.7109375 -0.28300781 214.7734375 -0.29296875 C215.72653809 -0.3086792 216.67963867 -0.32438965 217.66162109 -0.34057617 C218.81911865 -0.17199097 218.81911865 -0.17199097 220 0 C220.99 1.485 220.99 1.485 222 3 C222.61875 3.2475 223.2375 3.495 223.875 3.75 C227.26146821 5.74204012 228.75404037 8.38182665 230 12 C230.48534944 16.82329816 230.37708162 21.59617924 230.25 26.4375 C230.23195313 27.74138672 230.21390625 29.04527344 230.1953125 30.38867188 C230.14835957 33.59320909 230.08269464 36.7962189 230 40 C228.68 40 227.36 40 226 40 C226 40.66 226 41.32 226 42 C225.34 41.67 224.68 41.34 224 41 C225 39 225 39 228 38 C227.67 37.01 227.34 36.02 227 35 C226.77192123 31.44486748 226.60695695 27.89581826 226.48242188 24.3359375 C226.28767968 20.13244569 225.83972919 16.85842036 224 13 C223.64141484 11.67323492 223.2981424 10.34164079 223 9 C222.34 9 221.68 9 221 9 C220.67 8.01 220.34 7.02 220 6 C216.99992729 4.29144978 216.99992729 4.29144978 214 3 C214 2.34 214 1.68 214 1 C208.72 1 203.44 1 198 1 C198 2.32 198 3.64 198 5 C197.34 5 196.68 5 196 5 C196.103125 5.66 196.20625 6.32 196.3125 7 C195.85316159 11.40964878 193.88406967 14.66383293 191 18 C188.1875 19 188.1875 19 186 19 C182.34133706 14.67612562 181 10.65076098 181 5 C180.34 5 179.68 5 179 5 C179 3.68 179 2.36 179 1 C120.26 1 61.52 1 1 1 C1 2.65 1 4.3 1 6 C0.34 6 -0.32 6 -1 6 C-0.67 4.02 -0.34 2.04 0 0 Z M203 3 C206.63 3 210.26 3 214 3 C214 3.33 214 3.66 214 4 C210.37 4 206.74 4 203 4 C203 3.67 203 3.34 203 3 Z " fill="#4D56C7" transform="translate(48,3)"/>
<path d="M0 0 C22.14552023 -0.03123846 44.28851428 0.04425633 66.43343472 0.20192909 C70.52120486 0.23078382 74.60898395 0.25831588 78.69676208 0.28601074 C86.37739277 0.33823684 94.05801517 0.39158787 101.738635 0.4453826 C110.50827203 0.50674701 119.27791791 0.56679714 128.04756463 0.62675762 C146.03171971 0.7497486 164.0158635 0.87432262 182 1 C182.33 2.65 182.66 4.3 183 6 C182.01 5.505 182.01 5.505 181 5 C181 4.34 181 3.68 181 3 C121.27 3 61.54 3 0 3 C-0.33 4.98 -0.66 6.96 -1 9 C-1.63509263 10.81090669 -2.32101115 12.60499436 -3.0625 14.375 C-3.60583984 15.68597656 -3.60583984 15.68597656 -4.16015625 17.0234375 C-4.43730469 17.67570312 -4.71445312 18.32796875 -5 19 C-6.32 18.67 -7.64 18.34 -9 18 C-8.67 16.68 -8.34 15.36 -8 14 C-8 14.99 -8 15.98 -8 17 C-7.01 17 -6.02 17 -5 17 C-5 15.02 -5 13.04 -5 11 C-4.34 11 -3.68 11 -3 11 C-2.87625 10.29875 -2.7525 9.5975 -2.625 8.875 C-1.9615575 5.82316448 -1.00653463 2.95413823 0 0 Z " fill="#B0B6EF" transform="translate(48,0)"/>
<path d="M0 0 C7.35065985 -0.02531484 14.7013085 -0.04285202 22.05200195 -0.05493164 C24.55363383 -0.05996641 27.05526276 -0.06679461 29.55688477 -0.07543945 C33.14860766 -0.08754238 36.74029172 -0.09323682 40.33203125 -0.09765625 C41.45398392 -0.10281754 42.57593658 -0.10797882 43.73188782 -0.11329651 C45.29316658 -0.11340981 45.29316658 -0.11340981 46.88598633 -0.11352539 C48.2616552 -0.11685631 48.2616552 -0.11685631 49.66511536 -0.12025452 C52 0 52 0 55 1 C55.14546783 4.24952748 55.2341168 7.49821713 55.3125 10.75 C55.35439453 11.67039062 55.39628906 12.59078125 55.43945312 13.5390625 C55.45556641 14.42851563 55.47167969 15.31796875 55.48828125 16.234375 C55.51446533 17.05131836 55.54064941 17.86826172 55.56762695 18.70996094 C54.71853425 22.13554785 52.89971166 23.09152516 50 25 C47.04496765 25.4430542 47.04496765 25.4430542 43.7409668 25.36230469 C42.50005783 25.34198181 41.25914886 25.32165894 39.9806366 25.30072021 C38.6368167 25.25821057 37.29301094 25.21525171 35.94921875 25.171875 C34.56634706 25.14195391 33.18343512 25.11384298 31.80049133 25.08746338 C28.17166792 25.01339987 24.54391248 24.91484121 20.91583252 24.81109619 C17.20919451 24.70946797 13.50207166 24.63111701 9.79492188 24.55078125 C2.52927561 24.38991118 -4.73539985 24.20314947 -12 24 C-12.15234375 21.66015625 -12.15234375 21.66015625 -12 19 C-10.37550757 17.29220027 -8.70779973 15.62449243 -7 14 C-6.13880866 11.82653432 -6.13880866 11.82653432 -6 10 C-5.34 10 -4.68 10 -4 10 C-4.33 8.35 -4.66 6.7 -5 5 C-4.01 4.67 -3.02 4.34 -2 4 C-0.79117904 1.99983534 -0.79117904 1.99983534 0 0 Z M-1 4 C-2.0835387 5.97561793 -2.0835387 5.97561793 -2.9375 8.25 C-4.16533365 11.19395636 -5.42220152 13.82174599 -7.25 16.4375 C-9.18798722 18.75809234 -9.18798722 18.75809234 -9 21 C11.46 21 31.92 21 53 21 C53 14.73 53 8.46 53 2 C45.79175827 1.95063108 38.58361454 1.91429508 31.37524414 1.89013672 C28.92210171 1.88006755 26.46897131 1.86641139 24.01586914 1.84912109 C20.49362217 1.82491321 16.97153361 1.81352612 13.44921875 1.8046875 C12.34913986 1.79436493 11.24906097 1.78404236 10.11564636 1.77340698 C9.09481461 1.77325592 8.07398285 1.77310486 7.0222168 1.77294922 C6.12286911 1.768508 5.22352142 1.76406677 4.29692078 1.75949097 C1.72260923 1.84906901 1.72260923 1.84906901 -1 4 Z " fill="#2F30A2" transform="translate(158,113)"/>
<path d="M0 0 C1.17280014 0.00539291 1.17280014 0.00539291 2.36929321 0.01089478 C3.18873917 0.01074875 4.00818512 0.01060272 4.85246277 0.01045227 C7.57416385 0.01115164 10.29579737 0.01894515 13.01748657 0.02676392 C14.89935773 0.02862801 16.78122938 0.03005195 18.6631012 0.03105164 C23.62631561 0.0348775 28.58950096 0.04470836 33.55270386 0.05575562 C38.61322639 0.06596827 43.67375359 0.07054894 48.73428345 0.07559204 C58.67114726 0.08633057 68.60798183 0.10392792 78.54483032 0.12442017 C78.54483032 6.72442017 78.54483032 13.32442017 78.54483032 20.12442017 C58.08483032 20.12442017 37.62483032 20.12442017 16.54483032 20.12442017 C16.54483032 19.79442017 16.54483032 19.46442017 16.54483032 19.12442017 C36.67483032 19.12442017 56.80483032 19.12442017 77.54483032 19.12442017 C77.21483032 13.84442017 76.88483032 8.56442017 76.54483032 3.12442017 C50.14483032 3.12442017 23.74483032 3.12442017 -3.45516968 3.12442017 C-3.78516968 22.92442017 -4.11516968 42.72442017 -4.45516968 63.12442017 C-5.11516968 63.12442017 -5.77516968 63.12442017 -6.45516968 63.12442017 C-6.45516968 65.10442017 -6.45516968 67.08442017 -6.45516968 69.12442017 C-7.44516968 69.61942017 -7.44516968 69.61942017 -8.45516968 70.12442017 C-8.38624512 69.48960724 -8.31732056 68.85479431 -8.24630737 68.20074463 C-7.4807173 60.59292817 -7.25975166 53.04040603 -7.17391968 45.39785767 C-7.13617276 42.79499289 -7.09841195 40.19212831 -7.06063843 37.58926392 C-7.015137 34.20569955 -6.97189618 30.82210673 -6.92910767 27.43850708 C-6.87022222 22.79987127 -6.80419857 18.16137396 -6.73641968 13.52285767 C-6.72284424 12.29384735 -6.7092688 11.06483704 -6.69528198 9.79858398 C-6.67856445 8.67296051 -6.66184692 7.54733704 -6.6446228 6.38760376 C-6.63209473 5.39263885 -6.61956665 4.39767395 -6.60665894 3.37255859 C-6.31172634 -1.00431479 -3.79550994 0.00736772 0 0 Z " fill="#9A9EE2" transform="translate(131.45516967773438,35.875579833984375)"/>
<path d="M0 0 C1.54010742 0.02707031 1.54010742 0.02707031 3.11132812 0.0546875 C5.63767885 0.10168937 8.16210469 0.16737728 10.6875 0.25 C11.1825 2.23 11.1825 2.23 11.6875 4.25 C12.3475 4.25 13.0075 4.25 13.6875 4.25 C15.29814629 7.90079826 16.13644091 11.3007432 16.6875 15.25 C17.6775 15.25 18.6675 15.25 19.6875 15.25 C20.3475 13.93 21.0075 12.61 21.6875 11.25 C21.6875 13.56 21.6875 15.87 21.6875 18.25 C18.9375 19 18.9375 19 15.6875 19.25 C12.93678495 17.56900747 11.91622854 16.12960709 11.10546875 13.01171875 C10.79064076 11.40686387 10.51307937 9.79414603 10.27734375 8.17578125 C9.98537109 7.22251953 9.98537109 7.22251953 9.6875 6.25 C8.6975 5.92 7.7075 5.59 6.6875 5.25 C6.6875 4.59 6.6875 3.93 6.6875 3.25 C5.98625 3.40984375 5.285 3.5696875 4.5625 3.734375 C1.57204135 4.27070726 -1.27863245 4.39164759 -4.3125 4.5 C-9.49347616 4.86804259 -9.49347616 4.86804259 -13.5625 7.8125 C-14.14 8.616875 -14.7175 9.42125 -15.3125 10.25 C-15.3125 9.59 -15.3125 8.93 -15.3125 8.25 C-16.3025 8.25 -17.2925 8.25 -18.3125 8.25 C-18.3125 9.24 -18.3125 10.23 -18.3125 11.25 C-18.9725 11.25 -19.6325 11.25 -20.3125 11.25 C-20.3125 20.49 -20.3125 29.73 -20.3125 39.25 C-19.3225 39.25 -18.3325 39.25 -17.3125 39.25 C-17.3125 39.91 -17.3125 40.57 -17.3125 41.25 C-18.6325 40.92 -19.9525 40.59 -21.3125 40.25 C-21.43672509 36.08750393 -21.52712647 31.9260083 -21.5871582 27.76220703 C-21.61219925 26.34795318 -21.64624342 24.93382743 -21.68969727 23.52001953 C-22.08720747 10.24785532 -22.08720747 10.24785532 -19.10546875 6.5390625 C-18.18378906 5.78367187 -17.26210938 5.02828125 -16.3125 4.25 C-15.61769531 3.47140625 -14.92289063 2.6928125 -14.20703125 1.890625 C-9.64038241 -0.69775896 -5.14491613 -0.17116803 0 0 Z " fill="#0B20C3" transform="translate(23.3125,2.75)"/>
<path d="M0 0 C23.54759483 -0.11669142 47.09514648 -0.20491857 70.64297199 -0.25906086 C81.57612574 -0.28486589 92.50910007 -0.32006033 103.44213867 -0.37719727 C112.96901684 -0.42696185 122.4957651 -0.45927427 132.02276963 -0.47044247 C137.06945922 -0.47697301 142.1157771 -0.49236922 147.16234779 -0.52865028 C151.9090427 -0.56250011 156.65521155 -0.57307534 161.40201569 -0.56553841 C163.14718417 -0.5669179 164.89236962 -0.57691596 166.63743401 -0.59602737 C169.0148681 -0.62079471 171.39029901 -0.61496689 173.76777649 -0.60127258 C174.46329961 -0.61583679 175.15882272 -0.630401 175.8754223 -0.64540654 C177.80411243 -0.61523914 177.80411243 -0.61523914 181 0 C183.37829937 2.86329544 184 4.27101813 184 8 C184.66 8 185.32 8 186 8 C186 9.65 186 11.3 186 13 C185.5875 12.4225 185.175 11.845 184.75 11.25 C183.04733338 8.9306278 183.04733338 8.9306278 180.8125 7 C179 5 179 5 179 1 C120.26 1 61.52 1 1 1 C1 2.65 1 4.3 1 6 C0.34 6 -0.32 6 -1 6 C-0.67 4.02 -0.34 2.04 0 0 Z " fill="#4C59D6" transform="translate(48,3)"/>
<path d="M0 0 C1.2065625 0.0309375 1.2065625 0.0309375 2.4375 0.0625 C2.7675 1.0525 3.0975 2.0425 3.4375 3.0625 C5.43766466 4.27132096 5.43766466 4.27132096 7.4375 5.0625 C7.183004 6.54456495 6.90838238 8.02318615 6.625 9.5 C6.47417969 10.32371094 6.32335937 11.14742187 6.16796875 11.99609375 C5.92691406 12.67800781 5.68585938 13.35992187 5.4375 14.0625 C4.4475 14.3925 3.4575 14.7225 2.4375 15.0625 C2.4375 15.7225 2.4375 16.3825 2.4375 17.0625 C-1.90513862 17.22952456 -4.77210634 17.19249997 -8.5625 15.0625 C-9.34984859 7.03154441 -9.34984859 7.03154441 -6.125 3.0625 C-5.279375 2.4025 -4.43375 1.7425 -3.5625 1.0625 C-2.5625 0.0625 -2.5625 0.0625 0 0 Z " fill="#0E1DAD" transform="translate(237.5625,49.9375)"/>
<path d="M0 0 C0.66 0 1.32 0 2 0 C2.33 6.27 2.66 12.54 3 19 C20.82 19.33 38.64 19.66 57 20 C57 25.94 57 31.88 57 38 C50.73 38 44.46 38 38 38 C38 37.67 38 37.34 38 37 C43.61 37 49.22 37 55 37 C55 32.05 55 27.1 55 22 C53.40494629 22.01571045 51.80989258 22.0314209 50.16650391 22.04760742 C44.26632712 22.10177909 38.36617244 22.13630365 32.46582031 22.16479492 C29.90881661 22.1799107 27.35183894 22.20040366 24.79492188 22.22631836 C21.12623683 22.26257862 17.4578936 22.27969836 13.7890625 22.29296875 C12.64007477 22.30845261 11.49108704 22.32393646 10.30728149 22.33988953 C8.71585831 22.34022942 8.71585831 22.34022942 7.09228516 22.34057617 C5.68663803 22.35056892 5.68663803 22.35056892 4.25259399 22.36076355 C3.50923798 22.24171158 2.76588196 22.12265961 2 22 C-0.10209857 18.84685215 -0.2434761 18.13896919 -0.1953125 14.55078125 C-0.18886719 13.70322266 -0.18242187 12.85566406 -0.17578125 11.98242188 C-0.15902344 11.10134766 -0.14226562 10.22027344 -0.125 9.3125 C-0.11597656 8.41982422 -0.10695312 7.52714844 -0.09765625 6.60742188 C-0.07409748 4.40467686 -0.04120329 2.20247412 0 0 Z " fill="#D9DAED" transform="translate(146,56)"/>
<path d="M0 0 C0.33 0 0.66 0 1 0 C1.33 21.45 1.66 42.9 2 65 C2.66 65 3.32 65 4 65 C4.17015625 65.556875 4.3403125 66.11375 4.515625 66.6875 C7.01624938 74.56180656 9.1137646 81.02660777 16 86 C16 86.66 16 87.32 16 88 C16.66 88 17.32 88 18 88 C18 88.66 18 89.32 18 90 C19.5778125 90.185625 19.5778125 90.185625 21.1875 90.375 C25 91 25 91 27.40698242 92.01318359 C30.18207846 93.06929302 32.34319561 93.31028757 35.30078125 93.4140625 C36.27724609 93.45273438 37.25371094 93.49140625 38.25976562 93.53125 C39.26716797 93.5621875 40.27457031 93.593125 41.3125 93.625 C42.33923828 93.66367188 43.36597656 93.70234375 44.42382812 93.7421875 C46.94904265 93.83614897 49.47425592 93.9218154 52 94 C52 94.33 52 94.66 52 95 C48.04192285 95.11761144 44.08430379 95.18771882 40.125 95.25 C39.01640625 95.28351563 37.9078125 95.31703125 36.765625 95.3515625 C27.55834418 95.45988345 19.54165571 93.53054752 12 88 C12 87.34 12 86.68 12 86 C11.34 86 10.68 86 10 86 C10 85.01 10 84.02 10 83 C9.34 83 8.68 83 8 83 C5.21560812 79.98357547 4.2096356 76.87083393 3 73 C2.649375 72.34 2.29875 71.68 1.9375 71 C-0.18896592 66.46353937 -0.12341647 61.46140187 -0.11352539 56.53564453 C-0.11344986 55.27479034 -0.11337433 54.01393616 -0.11329651 52.71487427 C-0.10819109 51.3541866 -0.10297511 49.99349935 -0.09765625 48.6328125 C-0.09578912 47.22891287 -0.09436661 45.82501258 -0.09336853 44.42111206 C-0.08956658 40.74192478 -0.07975633 37.06277752 -0.06866455 33.38360596 C-0.05840031 29.62293031 -0.0538602 25.86224814 -0.04882812 22.1015625 C-0.03813179 14.73435683 -0.02108352 7.36718404 0 0 Z " fill="#2735BE" transform="translate(66,40)"/>
<path d="M0 0 C0.66 0 1.32 0 2 0 C2 9.57 2 19.14 2 29 C3.65 29.33 5.3 29.66 7 30 C7.6875 32.8125 7.6875 32.8125 8 36 C6.75 37.875 6.75 37.875 5 39 C4.01 39 3.02 39 2 39 C2 43.62 2 48.24 2 53 C1.34 53 0.68 53 0 53 C0 35.51 0 18.02 0 0 Z " fill="#C9CBE7" transform="translate(0,14)"/>
<path d="M0 0 C0.66 0.33 1.32 0.66 2 1 C1.34 1.66 0.68 2.32 0 3 C-0.99 3 -1.98 3 -3 3 C-3.12375 3.5775 -3.2475 4.155 -3.375 4.75 C-4 7 -4 7 -5.015625 8.7109375 C-7.17864654 13.74082092 -6.48534677 19.64874077 -6 25 C-3.87337654 30.13934003 -0.86072859 31.98829555 4 34.23828125 C6.2961444 35.15807205 6.2961444 35.15807205 10 36 C10 40.29 10 44.58 10 49 C8.02 49.66 6.04 50.32 4 51 C4.33 50.01 4.66 49.02 5 48 C6.32 48 7.64 48 9 48 C9 44.37 9 40.74 9 37 C7.329375 36.95875 5.65875 36.9175 3.9375 36.875 C-1.94992406 36.36602269 -5.21653261 34.48543146 -9 30 C-11.69216321 24.61567358 -10.89663445 14.84260527 -9.10546875 9.1640625 C-8 7 -8 7 -6 4 C-5.34 4 -4.68 4 -4 4 C-4 3.34 -4 2.68 -4 2 C-2.125 0.9375 -2.125 0.9375 0 0 Z " fill="#5E63C7" transform="translate(268,68)"/>
<path d="M0 0 C3.3125 -0.3125 3.3125 -0.3125 7 0 C9.7707068 2.94946208 9.98848606 4.76588326 10.1875 8.8125 C10.125625 9.864375 10.06375 10.91625 10 12 C9.01 12 8.02 12 7 12 C7 12.66 7 13.32 7 14 C0.65492958 14.35915493 0.65492958 14.35915493 -1.9375 12.9375 C-3.55479605 9.98831309 -3.18630138 7.29132441 -3 4 C-2.01 3.67 -1.02 3.34 0 3 C0 2.01 0 1.02 0 0 Z " fill="#3342C0" transform="translate(234,29)"/>
<path d="M0 0 C4.95 0 9.9 0 15 0 C14.34 2.31 13.68 4.62 13 7 C12.65864073 8.33130115 12.32074044 9.66358148 12 11 C11.34 11 10.68 11 10 11 C10 12.98 10 14.96 10 17 C9.01 17 8.02 17 7 17 C4 10.375 4 10.375 4 7 C3.34 7 2.68 7 2 7 C0.5393715 4.35261084 0 3.10551666 0 0 Z " fill="#F2F4FD" transform="translate(33,0)"/>
<path d="M0 0 C0.66 0 1.32 0 2 0 C2.06957382 8.38856185 2.12284852 16.77700273 2.15543652 25.16578197 C2.17107878 29.06122736 2.19229041 32.95647503 2.22631836 36.85180664 C2.25896368 40.61248525 2.27686385 44.37297394 2.28463173 48.13378334 C2.290166 49.56709087 2.30097321 51.00038826 2.31719017 52.43361473 C2.33903055 54.44416503 2.34022597 56.45490728 2.34057617 58.46557617 C2.34723801 59.60919113 2.35389984 60.75280609 2.36076355 61.93107605 C1.96110332 65.33088423 0.95920692 67.22875803 -1 70 C-1.66 68.68 -2.32 67.36 -3 66 C-2.01 65.01 -2.01 65.01 -1 64 C-0.66745753 61.20828912 -0.66745753 61.20828912 -0.68115234 57.89794922 C-0.66128265 56.61677216 -0.64141296 55.33559509 -0.62094116 54.01559448 C-0.60906383 52.61196058 -0.59740102 51.20832484 -0.5859375 49.8046875 C-0.56723308 48.37263869 -0.54766022 46.94060098 -0.5272522 45.50857544 C-0.47584794 41.73735083 -0.43626689 37.96609045 -0.39910889 34.19470215 C-0.359121 30.34715874 -0.30800496 26.49976517 -0.2578125 22.65234375 C-0.16095513 15.10166517 -0.07658205 7.55091432 0 0 Z " fill="#1E27B4" transform="translate(122,39)"/>
<path d="M0 0 C-2.96455715 2.56327058 -4.76196522 3.37536149 -8.67333984 3.37231445 C-9.59464691 3.37854324 -10.51595398 3.38477203 -11.46517944 3.39118958 C-12.4537796 3.38197983 -13.44237976 3.37277008 -14.4609375 3.36328125 C-15.48426178 3.36377975 -16.50758606 3.36427826 -17.56192017 3.36479187 C-19.72554466 3.36245263 -21.88917193 3.35273296 -24.05273438 3.33618164 C-27.35571802 3.31263745 -30.65789151 3.31561619 -33.9609375 3.32226562 C-36.06510896 3.31668695 -38.16927703 3.30957589 -40.2734375 3.30078125 C-41.2579892 3.30169266 -42.24254089 3.30260406 -43.25692749 3.30354309 C-48.23254891 3.25241426 -52.33726021 2.96390183 -57 1 C-57 0.67 -57 0.34 -57 0 C-49.203915 -0.16795432 -41.40769559 -0.32789478 -33.61132812 -0.48217773 C-30.9573186 -0.53565453 -28.30334584 -0.59098812 -25.64941406 -0.64819336 C-21.84187752 -0.72994592 -18.03426014 -0.80509096 -14.2265625 -0.87890625 C-13.03382721 -0.90594131 -11.84109192 -0.93297638 -10.61221313 -0.96083069 C-9.51122284 -0.98092697 -8.41023254 -1.00102325 -7.27587891 -1.02172852 C-6.30325104 -1.04171402 -5.33062317 -1.06169952 -4.32852173 -1.08229065 C-2 -1 -2 -1 0 0 Z " fill="#2529A6" transform="translate(206,95)"/>
<path d="M0 0 C0.4609375 2.47265625 0.4609375 2.47265625 0.375 5.0625 C0.35566406 6.34833984 0.35566406 6.34833984 0.3359375 7.66015625 C0 10 0 10 -2 13 C-2.32700156 15.28090744 -2.32700156 15.28090744 -2.31884766 17.83862305 C-2.33871735 18.8194133 -2.35858704 19.80020355 -2.37905884 20.81071472 C-2.39638565 22.39521172 -2.39638565 22.39521172 -2.4140625 24.01171875 C-2.43342865 25.09508011 -2.4527948 26.17844147 -2.4727478 27.29463196 C-2.53258344 30.75884093 -2.5789453 34.22308305 -2.625 37.6875 C-2.66317607 40.03451979 -2.70222758 42.38152552 -2.7421875 44.72851562 C-2.83828824 50.48555234 -2.92332413 56.24267359 -3 62 C-2.34 62 -1.68 62 -1 62 C-0.34 63.65 0.32 65.3 1 67 C0.34 67 -0.32 67 -1 67 C-1.33 67.66 -1.66 68.32 -2 69 C-4.21229608 65.43805469 -4.24263265 62.54028599 -4.22705078 58.39550781 C-4.22734283 57.74143448 -4.22763489 57.08736115 -4.22793579 56.41346741 C-4.22654676 54.25988317 -4.21100608 52.10664851 -4.1953125 49.953125 C-4.19158084 48.45668731 -4.18873459 46.96024717 -4.18673706 45.46380615 C-4.1791126 41.5313641 -4.15947438 37.59907053 -4.1373291 33.66668701 C-4.11684506 29.65150969 -4.10772988 25.6363083 -4.09765625 21.62109375 C-4.07622728 13.74732021 -4.04105489 5.8736957 -4 -2 C-16.375 -1.505 -16.375 -1.505 -29 -1 C-29 -1.66 -29 -2.32 -29 -3 C-24.91828536 -3.28402303 -20.83515849 -3.52130287 -16.75 -3.75 C-15.59113281 -3.83121094 -14.43226562 -3.91242187 -13.23828125 -3.99609375 C-12.12324219 -4.05410156 -11.00820312 -4.11210938 -9.859375 -4.171875 C-8.83295898 -4.2347168 -7.80654297 -4.29755859 -6.74902344 -4.36230469 C-3.23740376 -3.89949442 -2.13935358 -2.75854093 0 0 Z " fill="#1F1F9E" transform="translate(96,38)"/>
<path d="M0 0 C2.64 0 5.28 0 8 0 C8 0.33 8 0.66 8 1 C6.02 1 4.04 1 2 1 C2 5.29 2 9.58 2 14 C4.475 14.99 4.475 14.99 7 16 C7.8125 18.625 7.8125 18.625 8 21 C4.375 24 4.375 24 1 24 C1 32.58 1 41.16 1 50 C0.67 50 0.34 50 0 50 C0 33.5 0 17 0 0 Z " fill="#D2D3E7" transform="translate(0,103)"/>
<path d="M0 0 C2.97 0.495 2.97 0.495 6 1 C6 1.66 6 2.32 6 3 C6.66 3 7.32 3 8 3 C8 3.66 8 4.32 8 5 C8.66 5 9.32 5 10 5 C10 6.98 10 8.96 10 11 C5.38 11 0.76 11 -4 11 C-3.1302743 6.65137149 -2.0525056 3.83729307 0 0 Z " fill="#5F66C1" transform="translate(39,80)"/>
<path d="M0 0 C1.36125 0.37125 1.36125 0.37125 2.75 0.75 C4.19755245 7.02272727 4.19755245 7.02272727 2.25 10.1875 C-1.04727026 12.24829391 -3.43513824 12.0434509 -7.25 11.75 C-7.73259861 4.51102088 -7.73259861 4.51102088 -5.625 1.1875 C-3.25 -0.25 -3.25 -0.25 0 0 Z " fill="#DBDCEE" transform="translate(43.25,104.25)"/>
<path d="M0 0 C0.91120605 0.01047363 1.82241211 0.02094727 2.76123047 0.03173828 C3.74736328 0.03818359 4.73349609 0.04462891 5.74951172 0.05126953 C7.29832031 0.07640625 7.29832031 0.07640625 8.87841797 0.10205078 C9.91869141 0.11107422 10.95896484 0.12009766 12.03076172 0.12939453 C14.60520889 0.15301331 17.17920009 0.18594929 19.75341797 0.22705078 C20.08341797 1.54705078 20.41341797 2.86705078 20.75341797 4.22705078 C21.41341797 4.22705078 22.07341797 4.22705078 22.75341797 4.22705078 C24.36406426 7.87784904 25.20235888 11.27779398 25.75341797 15.22705078 C26.74341797 15.22705078 27.73341797 15.22705078 28.75341797 15.22705078 C29.41341797 13.90705078 30.07341797 12.58705078 30.75341797 11.22705078 C30.75341797 13.53705078 30.75341797 15.84705078 30.75341797 18.22705078 C25.53589531 19.65001151 25.53589531 19.65001151 22.44091797 17.97705078 C19.81259742 13.69386175 19.9237727 9.16733808 19.75341797 4.22705078 C19.09341797 4.22705078 18.43341797 4.22705078 17.75341797 4.22705078 C17.75341797 3.23705078 17.75341797 2.24705078 17.75341797 1.22705078 C17.19356201 1.25734375 16.63370605 1.28763672 16.05688477 1.31884766 C13.51827299 1.45574262 10.97959706 1.59141017 8.44091797 1.72705078 C7.55984375 1.77474609 6.67876953 1.82244141 5.77099609 1.87158203 C4.4996582 1.93925781 4.4996582 1.93925781 3.20263672 2.00830078 C2.42235107 2.05019531 1.64206543 2.09208984 0.83813477 2.13525391 C-0.85540599 2.20982603 -2.55140025 2.22705078 -4.24658203 2.22705078 C-2.24658203 0.22705078 -2.24658203 0.22705078 0 0 Z " fill="#2339CA" transform="translate(14.24658203125,2.77294921875)"/>
<path d="M0 0 C1.65 0 3.3 0 5 0 C5.48108275 1.41601714 5.95978141 2.83284437 6.4375 4.25 C6.70433594 5.03890625 6.97117188 5.8278125 7.24609375 6.640625 C7.91954708 8.74821988 8.49150595 10.84753973 9 13 C8.34 13 7.68 13 7 13 C5.68 10.03 4.36 7.06 3 4 C1.68 6.64 0.36 9.28 -1 12 C-1.66 12 -2.32 12 -3 12 C-2.979375 12.969375 -2.95875 13.93875 -2.9375 14.9375 C-3 18 -3 18 -4 19 C-5.34267413 19.08631874 -6.68974322 19.10706473 -8.03515625 19.09765625 C-8.84404297 19.09443359 -9.65292969 19.09121094 -10.48632812 19.08789062 C-11.33646484 19.07951172 -12.18660156 19.07113281 -13.0625 19.0625 C-13.91650391 19.05798828 -14.77050781 19.05347656 -15.65039062 19.04882812 C-17.76695663 19.03700373 -19.88348685 19.01906769 -22 19 C-22 18.34 -22 17.68 -22 17 C-24.97 16.01 -27.94 15.02 -31 14 C-30.67 13.34 -30.34 12.68 -30 12 C-29.16082031 12.433125 -29.16082031 12.433125 -28.3046875 12.875 C-20.81595211 16.34245304 -14.15742434 16.42315169 -6 16 C-5.34 14.35 -4.68 12.7 -4 11 C-3.34 11 -2.68 11 -2 11 C-1.34 7.37 -0.68 3.74 0 0 Z " fill="#9A99C9" transform="translate(39,151)"/>
<path d="M0 0 C-1.65 1.98 -3.3 3.96 -5 6 C-5.763125 5.814375 -6.52625 5.62875 -7.3125 5.4375 C-10.08967375 4.77180827 -10.08967375 4.77180827 -13 6 C-14.66614608 6.04165365 -16.33385392 6.04165365 -18 6 C-20.87019023 5.9432267 -20.87019023 5.9432267 -23.1875 6.25 C-27.29080874 5.88526145 -30.43848449 3.97960167 -34 2 C-30.75201257 0.91733752 -28.64103173 0.96563814 -25.23828125 1.12109375 C-23.56088867 1.19360352 -23.56088867 1.19360352 -21.84960938 1.26757812 C-20.09874023 1.35168945 -20.09874023 1.35168945 -18.3125 1.4375 C-16.54422852 1.51581055 -16.54422852 1.51581055 -14.74023438 1.59570312 C-11.82655906 1.72546194 -8.91321922 1.86043132 -6 2 C-6 1.34 -6 0.68 -6 0 C-3.50907189 -1.24546405 -2.58919267 -0.7767578 0 0 Z " fill="#130D98" transform="translate(124,133)"/>
<path d="M0 0 C3.0625 0.3125 3.0625 0.3125 4.9375 1.4375 C6.5307099 4.09284983 6.26464032 6.28039518 6.0625 9.3125 C3.59856281 10.86386786 2.38160854 11.34289129 -0.5625 11.0625 C-2.9375 10.3125 -2.9375 10.3125 -4.9375 8.3125 C-5.1875 5.3125 -5.1875 5.3125 -4.9375 2.3125 C-2.9375 0.3125 -2.9375 0.3125 0 0 Z " fill="#EAECF6" transform="translate(236.9375,54.6875)"/>
<path d="M0 0 C1.670625 0.061875 1.670625 0.061875 3.375 0.125 C4.99449011 2.69713134 5.41908751 3.80169159 5 6.875 C4.79375 7.6175 4.5875 8.36 4.375 9.125 C3.385 9.125 2.395 9.125 1.375 9.125 C1.375 9.785 1.375 10.445 1.375 11.125 C-0.935 10.795 -3.245 10.465 -5.625 10.125 C-5.8203125 4.0703125 -5.8203125 4.0703125 -5.625 2.125 C-3.625 0.125 -3.625 0.125 0 0 Z " fill="#F4F4FB" transform="translate(42.625,54.875)"/>
<path d="M0 0 C12.54 0 25.08 0 38 0 C36 2 36 2 33.64453125 2.16015625 C32.70996094 2.12792969 31.77539062 2.09570312 30.8125 2.0625 C27.62249043 2.00059813 24.78991025 2.03112441 21.625 2.5 C17.01273914 3.13617391 12.53628818 2.92585325 7.890625 2.7421875 C5.00849453 2.73497105 5.00849453 2.73497105 3.234375 4.3828125 C2.62335937 5.18332031 2.62335937 5.18332031 2 6 C1.34 6.66 0.68 7.32 0 8 C-0.66 7.67 -1.32 7.34 -2 7 C-2.33 7.99 -2.66 8.98 -3 10 C-3.33 9.34 -3.66 8.68 -4 8 C-3.67 7.01 -3.34 6.02 -3 5 C-2.01 5 -1.02 5 0 5 C0 3.35 0 1.7 0 0 Z " fill="#061DC8" transform="translate(49,4)"/>
<path d="M0 0 C1.44197868 2.88395737 1.58833581 5.82430479 2 9 C3.32 9 4.64 9 6 9 C6.05819473 13.06243957 6.09366215 17.12477146 6.125 21.1875 C6.14175781 22.33798828 6.15851563 23.48847656 6.17578125 24.67382812 C6.18222656 25.78564453 6.18867188 26.89746094 6.1953125 28.04296875 C6.20578613 29.06414795 6.21625977 30.08532715 6.22705078 31.13745117 C5.98999632 34.12612167 5.25617102 36.29423369 4 39 C3.34 39 2.68 39 2 39 C2 40.32 2 41.64 2 43 C1.34 43 0.68 43 0 43 C0.54723683 39.62537285 1.0549 37.91765 3 35 C3.36749389 32.38710506 3.36749389 32.38710506 3.4140625 29.45703125 C3.47207031 27.84731445 3.47207031 27.84731445 3.53125 26.20507812 C3.5621875 25.08552734 3.593125 23.96597656 3.625 22.8125 C3.66367187 21.68134766 3.70234375 20.55019531 3.7421875 19.38476562 C3.83652533 16.5900075 3.92211652 13.79525722 4 11 C3.071875 10.8453125 3.071875 10.8453125 2.125 10.6875 C0 10 0 10 -2 7 C-2.25 4.4375 -2.25 4.4375 -2 2 C-1.34 1.34 -0.68 0.68 0 0 Z " fill="#2825A7" transform="translate(271,119)"/>
<path d="M0 0 C2.9375 0.8125 2.9375 0.8125 4.9375 3.8125 C4.9375 5.1325 4.9375 6.4525 4.9375 7.8125 C4.2775 7.8125 3.6175 7.8125 2.9375 7.8125 C2.9375 8.4725 2.9375 9.1325 2.9375 9.8125 C-3.8125 10.9375 -3.8125 10.9375 -6.0625 9.8125 C-6.35546875 3.7578125 -6.35546875 3.7578125 -6.0625 1.8125 C-3.0625 -0.1875 -3.0625 -0.1875 0 0 Z " fill="#E0E3F7" transform="translate(43.0625,30.1875)"/>
<path d="M0 0 C0.33 0.99 0.66 1.98 1 3 C2.32 2.67 3.64 2.34 5 2 C5 2.66 5 3.32 5 4 C5.66 4.33 6.32 4.66 7 5 C6.67 7.97 6.34 10.94 6 14 C6.66 14 7.32 14 8 14 C8 15.65 8 17.3 8 19 C14.27 18.67 20.54 18.34 27 18 C27 17.34 27 16.68 27 16 C28.32 16.33 29.64 16.66 31 17 C25.4560148 19.80512399 21.22729121 20.3935213 15.0625 20.1875 C13.89364258 20.16719727 13.89364258 20.16719727 12.70117188 20.14648438 C10.80047596 20.11150224 8.90014166 20.05770959 7 20 C7 18.68 7 17.36 7 16 C6.34 16 5.68 16 5 16 C3.35 12.04 1.7 8.08 0 4 C-1.32 4.33 -2.64 4.66 -4 5 C-3.6875 3.0625 -3.6875 3.0625 -3 1 C-2.01 0.67 -1.02 0.34 0 0 Z " fill="#38348C" transform="translate(238,148)"/>
<path d="M0 0 C2.875 -0.125 2.875 -0.125 6 0 C8 2 8 2 8.22705078 4.43017578 C8.21134033 5.92266846 8.21134033 5.92266846 8.1953125 7.4453125 C8.18564453 9.05986328 8.18564453 9.05986328 8.17578125 10.70703125 C8.15902344 11.83496094 8.14226562 12.96289062 8.125 14.125 C8.11597656 15.26066406 8.10695313 16.39632812 8.09765625 17.56640625 C8.07403098 20.37781299 8.04109013 23.18880298 8 26 C7.34 26 6.68 26 6 26 C5.67 27.98 5.34 29.96 5 32 C3.94872072 28.61608422 3.95912402 25.66796575 4.12109375 22.140625 C4.16943359 21.02558594 4.21777344 19.91054687 4.26757812 18.76171875 C4.35168945 17.02341797 4.35168945 17.02341797 4.4375 15.25 C4.48970703 14.07566406 4.54191406 12.90132812 4.59570312 11.69140625 C4.72526224 8.79399336 4.86022447 5.89693507 5 3 C3.68 3 2.36 3 1 3 C0.67 2.01 0.34 1.02 0 0 Z " fill="#A8A7E0" transform="translate(272,125)"/>
<path d="M0 0 C2.4375 0.8125 2.4375 0.8125 4.4375 2.8125 C4.79773622 5.62234248 4.82082602 7.19491919 3.3125 9.625 C0.57762639 11.35708662 -1.39990129 11.21623601 -4.5625 10.8125 C-6.5625 7.8125 -6.5625 7.8125 -6.375 5.3125 C-5.14642287 1.53226269 -4.18808952 -0.30644557 0 0 Z " fill="#B7B9E1" transform="translate(238.5625,104.1875)"/>
<path d="M0 0 C1.32 0.33 2.64 0.66 4 1 C3.67 1.33 3.34 1.66 3 2 C2.90057135 3.64863957 2.86919818 5.30149113 2.8671875 6.953125 C2.86525391 8.47099609 2.86525391 8.47099609 2.86328125 10.01953125 C2.86714844 11.08558594 2.87101563 12.15164062 2.875 13.25 C2.87113281 14.30058594 2.86726562 15.35117188 2.86328125 16.43359375 C2.86457031 17.45066406 2.86585937 18.46773437 2.8671875 19.515625 C2.86831543 20.44665039 2.86944336 21.37767578 2.87060547 22.33691406 C2.99926493 24.9848715 3.41162938 27.41864806 4 30 C4.66 30 5.32 30 6 30 C6.66 31.98 7.32 33.96 8 36 C5.1248055 34.71111971 2.9928436 33.46733017 1 31 C-0.15728948 27.56786894 -0.11463692 24.30302756 -0.09765625 20.703125 C-0.09443359 19.49785156 -0.09121094 18.29257813 -0.08789062 17.05078125 C-0.07951172 15.79652344 -0.07113281 14.54226562 -0.0625 13.25 C-0.05798828 11.98027344 -0.05347656 10.71054688 -0.04882812 9.40234375 C-0.03704556 6.26818164 -0.02059416 3.13411459 0 0 Z " fill="#09057E" transform="translate(3,128)"/>
<path d="M0 0 C2.37233447 2.28447023 4.55135407 4.63390042 6.625 7.1875 C8.69169295 10.01036127 8.69169295 10.01036127 11 11 C11 11.66 11 12.32 11 13 C11.66 13 12.32 13 13 13 C13 13.66 13 14.32 13 15 C14.051875 15.12375 15.10375 15.2475 16.1875 15.375 C20 16 20 16 22.40698242 17.01318359 C25.18207846 18.06929302 27.34319561 18.31028757 30.30078125 18.4140625 C31.27724609 18.45273438 32.25371094 18.49140625 33.25976562 18.53125 C34.26716797 18.5621875 35.27457031 18.593125 36.3125 18.625 C37.85260742 18.68300781 37.85260742 18.68300781 39.42382812 18.7421875 C41.94904265 18.83614897 44.47425592 18.9218154 47 19 C47 19.33 47 19.66 47 20 C43.04192285 20.11761144 39.08430379 20.18771882 35.125 20.25 C33.46210937 20.30027344 33.46210937 20.30027344 31.765625 20.3515625 C22.55834418 20.45988345 14.54165571 18.53054752 7 13 C7 12.34 7 11.68 7 11 C6.34 11 5.68 11 5 11 C5 10.01 5 9.02 5 8 C4.34 8 3.68 8 3 8 C0.25624329 5.04518508 0 4.22528092 0 0 Z " fill="#2928A0" transform="translate(71,115)"/>
<path d="M0 0 C1.2375 0.1546875 1.2375 0.1546875 2.5 0.3125 C4.9294516 3.9566774 4.66179575 6.02491272 4.5 10.3125 C-2.25 11.4375 -2.25 11.4375 -4.5 10.3125 C-4.6953125 4.2578125 -4.6953125 4.2578125 -4.5 2.3125 C-2.5 0.3125 -2.5 0.3125 0 0 Z " fill="#D1D1EC" transform="translate(41.5,128.6875)"/>
<path d="M0 0 C0.598125 0.309375 1.19625 0.61875 1.8125 0.9375 C4.08956772 2.10209704 4.08956772 2.10209704 7 3 C9.68933039 7.06892196 11.03733417 10.87997501 10.875 15.75 C10.10066939 18.62608514 9.23174105 21.29016969 8 24 C7.34 24 6.68 24 6 24 C6 24.99 6 25.98 6 27 C5.34 26.67 4.68 26.34 4 26 C4.33 25.21625 4.66 24.4325 5 23.625 C6.60760839 17.79741957 6.68004067 11.83310121 5 6 C4.34 6 3.68 6 3 6 C2.01 4.02 1.02 2.04 0 0 Z " fill="#3C43A0" transform="translate(12,70)"/>
<path d="M0 0 C2.45103548 0.98041419 3.76758786 1.6513818 5.25 3.875 C6 6 6 6 6 10 C2.7 10 -0.6 10 -4 10 C-3.38461538 3.47692308 -3.38461538 3.47692308 -1.4375 1.0625 C-0.7259375 0.5365625 -0.7259375 0.5365625 0 0 Z " fill="#BABEE6" transform="translate(236,80)"/>
<path d="M0 0 C0 3 0 3 -1 5 C19.13 5 39.26 5 60 5 C60 5.33 60 5.66 60 6 C38.88 6 17.76 6 -4 6 C-4 5.01 -4 4.02 -4 3 C-2 1.3125 -2 1.3125 0 0 Z " fill="#6866C3" transform="translate(150,129)"/>
<path d="M0 0 C2.375 0.6875 2.375 0.6875 3.375 1.6875 C3.5 4.6875 3.5 4.6875 3.375 7.6875 C2.375 8.6875 2.375 8.6875 -0.5 8.875 C-3.625 8.6875 -3.625 8.6875 -6.625 6.6875 C-6.3125 4.3125 -6.3125 4.3125 -5.625 1.6875 C-2.625 -0.3125 -2.625 -0.3125 0 0 Z " fill="#E1E4F6" transform="translate(238.625,31.3125)"/>
<path d="M0 0 C4.60809986 2.24177831 6.22174545 4.20284819 8 9 C8.35565523 12.96678288 8.2830427 16.89650399 8.1875 20.875 C8.17396484 21.94492187 8.16042969 23.01484375 8.14648438 24.1171875 C8.11128624 26.74531511 8.06204693 29.37239194 8 32 C5.47975043 28.21962565 5.62606057 25.01487382 5.5 20.625 C5.35557823 15.64669651 5.18993554 11.5750979 3 7 C2.64141484 5.67323492 2.2981424 4.34164079 2 3 C1.34 3 0.68 3 0 3 C0 2.01 0 1.02 0 0 Z " fill="#213ACD" transform="translate(269,9)"/>
<path d="M0 0 C1.32 0 2.64 0 4 0 C4.66 0.99 5.32 1.98 6 3 C6.61875 3.2475 7.2375 3.495 7.875 3.75 C11.26146821 5.74204012 12.75404037 8.38182665 14 12 C14.48534944 16.82329816 14.37708162 21.59617924 14.25 26.4375 C14.23195313 27.74138672 14.21390625 29.04527344 14.1953125 30.38867188 C14.14835957 33.59320909 14.08269464 36.7962189 14 40 C12.68 40 11.36 40 10 40 C10 40.66 10 41.32 10 42 C9.34 41.67 8.68 41.34 8 41 C8.33 40.34 8.66 39.68 9 39 C10.32 39 11.64 39 13 39 C12.91874844 35.12416586 12.80593581 31.2498621 12.6875 27.375 C12.66494141 26.28058594 12.64238281 25.18617187 12.61914062 24.05859375 C12.38418558 16.10326699 12.38418558 16.10326699 9 9 C7.35857037 7.9590934 5.69287785 6.95495674 4 6 C2.8125 3.9375 2.8125 3.9375 2 2 C1.34 1.34 0.68 0.68 0 0 Z " fill="#6675DD" transform="translate(264,3)"/>
<path d="M0 0 C1.98 0 3.96 0 6 0 C6 0.99 6 1.98 6 3 C6.66 3 7.32 3 8 3 C7.125 7.875 7.125 7.875 6 9 C3.0625 9.1875 3.0625 9.1875 0 9 C-0.66 8.34 -1.32 7.68 -2 7 C-2 5.68 -2 4.36 -2 3 C-1.34 3 -0.68 3 0 3 C0 2.01 0 1.02 0 0 Z " fill="#F7F7FB" transform="translate(234,129)"/>
<path d="M0 0 C0.99 0.33 1.98 0.66 3 1 C3.93402724 6.41735797 4.20808081 9.80451575 2 15 C3.32 15.33 4.64 15.66 6 16 C5.6875 17.9375 5.6875 17.9375 5 20 C4.01 20.33 3.02 20.66 2 21 C2 20.34 2 19.68 2 19 C1.34 19 0.68 19 0 19 C0 12.73 0 6.46 0 0 Z " fill="#071090" transform="translate(204,75)"/>
<path d="M0 0 C1.65 0 3.3 0 5 0 C5.33 0.99 5.66 1.98 6 3 C8.41674224 3.02705308 10.8331794 3.04686438 13.25 3.0625 C14.27287109 3.07506836 14.27287109 3.07506836 15.31640625 3.08789062 C18.69342554 3.10428392 21.77291639 3.05628768 25 2 C22.5879397 5.73869347 22.5879397 5.73869347 20.3125 6.75 C13.48711883 7.48787905 9.05620646 7.20622695 3 4 C1.0625 2.375 1.0625 2.375 0 1 C0 0.67 0 0.34 0 0 Z " fill="#5054A5" transform="translate(95,107)"/>
<path d="M0 0 C3 3.625 3 3.625 3 7 C3.66 7 4.32 7 5 7 C5 8.32 5 9.64 5 11 C15.395 10.505 15.395 10.505 26 10 C26 10.99 26 11.98 26 13 C18.74 13 11.48 13 4 13 C0.625 4 0.625 4 0 0 Z " fill="#AFAECE" transform="translate(240,157)"/>
<path d="M0 0 C3.27066566 -0.08706892 6.54103365 -0.14041241 9.8125 -0.1875 C10.74126953 -0.21263672 11.67003906 -0.23777344 12.62695312 -0.26367188 C13.9659668 -0.27817383 13.9659668 -0.27817383 15.33203125 -0.29296875 C16.56530151 -0.31653442 16.56530151 -0.31653442 17.82348633 -0.34057617 C20 -0 20 -0 23 3 C15.41 3 7.82 3 0 3 C0 2.01 0 1.02 0 0 Z " fill="#C9CCF4" transform="translate(245,0)"/>
<path d="M0 0 C0.66 0.33 1.32 0.66 2 1 C1.34 1.66 0.68 2.32 0 3 C-0.99 3 -1.98 3 -3 3 C-3.12375 3.5775 -3.2475 4.155 -3.375 4.75 C-4 7 -4 7 -5.015625 8.71484375 C-7.35144957 14.13729364 -7.10113438 21.96948668 -5.1015625 27.47265625 C-3.94642382 29.55954805 -3.94642382 29.55954805 -2 32 C-3.8125 31.5 -3.8125 31.5 -6 30 C-9.69524718 22.47753252 -10.11998447 15.89726234 -7.5 7.9375 C-7.01351316 6.61993148 -6.5184291 5.30533042 -6 4 C-5.34 4 -4.68 4 -4 4 C-4 3.34 -4 2.68 -4 2 C-2.125 0.9375 -2.125 0.9375 0 0 Z " fill="#A0A5E5" transform="translate(268,68)"/>
<path d="M0 0 C0.66 0 1.32 0 2 0 C2.19392201 5.52677733 1.7479503 9.75614911 0 15 C-1.32 14.67 -2.64 14.34 -4 14 C-4 14.99 -4 15.98 -4 17 C-4.66 17 -5.32 17 -6 17 C-6.2475 17.61875 -6.495 18.2375 -6.75 18.875 C-8.20628639 21.35068687 -9.37812506 21.95125002 -12 23 C-11 20 -11 20 -8 18 C-7.67 17.01 -7.34 16.02 -7 15 C-6.34 15 -5.68 15 -5 15 C-2.89312241 10.13797478 -1.47914043 5.07838213 0 0 Z " fill="#373697" transform="translate(147,103)"/>
<path d="M0 0 C0.99 0.33 1.98 0.66 3 1 C3 2.32 3 3.64 3 5 C3.804375 5.309375 4.60875 5.61875 5.4375 5.9375 C8 7 8 7 9 8 C9.07271741 10.35313555 9.08370868 12.70833668 9.0625 15.0625 C9.05347656 16.35285156 9.04445313 17.64320312 9.03515625 18.97265625 C9.02355469 19.97167969 9.01195312 20.97070312 9 22 C8.34 22 7.68 22 7 22 C7 17.71 7 13.42 7 9 C5.35 9 3.7 9 2 9 C-0.29013653 5.5647952 -0.17842973 4.014669 0 0 Z " fill="#C9CDF1" transform="translate(271,45)"/>
<path d="M0 0 C1.98 0 3.96 0 6 0 C5.67 0.66 5.34 1.32 5 2 C1.9375 2.625 1.9375 2.625 -1 3 C-1 5.64 -1 8.28 -1 11 C1.97 11 4.94 11 8 11 C7.67 11.99 7.34 12.98 7 14 C-0.38052027 14.48396854 -0.38052027 14.48396854 -3 12.4375 C-4.32761013 9.2014503 -4.19966912 6.46093134 -4 3 C-2.68 2.67 -1.36 2.34 0 2 C0 1.34 0 0.68 0 0 Z " fill="#374AC9" transform="translate(38,29)"/>
<path d="M0 0 C0.97582031 0.00902344 1.95164062 0.01804688 2.95703125 0.02734375 C3.69308594 0.03894531 4.42914063 0.05054688 5.1875 0.0625 C5.1875 1.3825 5.1875 2.7025 5.1875 4.0625 C3.08340361 4.08951408 0.97920822 4.10890223 -1.125 4.125 C-2.29675781 4.13660156 -3.46851563 4.14820313 -4.67578125 4.16015625 C-7.8125 4.0625 -7.8125 4.0625 -10.8125 3.0625 C-10.8125 2.4025 -10.8125 1.7425 -10.8125 1.0625 C-7.13862505 0.20951624 -3.7677607 -0.04539471 0 0 Z " fill="#13117F" transform="translate(26.8125,163.9375)"/>
<path d="M0 0 C1.98 0.66 3.96 1.32 6 2 C7 9.75 7 9.75 7 12 C5.68 11.67 4.36 11.34 3 11 C3 10.34 3 9.68 3 9 C2.01 9 1.02 9 0 9 C0 6.03 0 3.06 0 0 Z " fill="#080E83" transform="translate(3,107)"/>
<path d="M0 0 C0 3 0 3 -1 5 C-1.99 5 -2.98 5 -4 5 C-4 5.99 -4 6.98 -4 8 C-4.66 8 -5.32 8 -6 8 C-6 17.24 -6 26.48 -6 36 C-5.01 36 -4.02 36 -3 36 C-3 36.66 -3 37.32 -3 38 C-4.32 37.67 -5.64 37.34 -7 37 C-7.12422509 32.83750393 -7.21462647 28.6760083 -7.2746582 24.51220703 C-7.29969925 23.09795318 -7.33374342 21.68382743 -7.37719727 20.27001953 C-7.77476404 6.99596648 -7.77476404 6.99596648 -4.60546875 3.1015625 C-2 1 -2 1 0 0 Z " fill="#4C54B4" transform="translate(9,6)"/>
<path d="M0 0 C0.66 0 1.32 0 2 0 C2.29296875 6.0546875 2.29296875 6.0546875 2 8 C1.01 8.66 0.02 9.32 -1 10 C-1.99 9.67 -2.98 9.34 -4 9 C-4 12.96 -4 16.92 -4 21 C-1.69 21 0.62 21 3 21 C3 21.66 3 22.32 3 23 C3.66 23 4.32 23 5 23 C4.67 23.66 4.34 24.32 4 25 C1.03 24.01 -1.94 23.02 -5 22 C-5.13489391 19.73078464 -5.23193995 17.4592933 -5.3125 15.1875 C-5.37050781 13.92292969 -5.42851563 12.65835938 -5.48828125 11.35546875 C-5.32714844 10.24816406 -5.16601562 9.14085937 -5 8 C-2.5 6.21875 -2.5 6.21875 0 5 C0.41780879 2.37305578 0.41780879 2.37305578 0 0 Z " fill="#474DB0" transform="translate(7,45)"/>
<path d="M0 0 C0.4609375 2.47265625 0.4609375 2.47265625 0.375 5.0625 C0.35566406 6.34833984 0.35566406 6.34833984 0.3359375 7.66015625 C0 10 0 10 -2 13 C-2.66 8.38 -3.32 3.76 -4 -1 C-12.25 -1 -20.5 -1 -29 -1 C-29 -1.66 -29 -2.32 -29 -3 C-24.91828536 -3.28402303 -20.83515849 -3.52130287 -16.75 -3.75 C-15.59113281 -3.83121094 -14.43226562 -3.91242187 -13.23828125 -3.99609375 C-12.12324219 -4.05410156 -11.00820312 -4.11210938 -9.859375 -4.171875 C-8.83295898 -4.2347168 -7.80654297 -4.29755859 -6.74902344 -4.36230469 C-3.23740376 -3.89949442 -2.13935358 -2.75854093 0 0 Z " fill="#1925AB" transform="translate(96,38)"/>
<path d="M0 0 C0.91120605 0.01047363 1.82241211 0.02094727 2.76123047 0.03173828 C3.74736328 0.03818359 4.73349609 0.04462891 5.74951172 0.05126953 C7.29832031 0.07640625 7.29832031 0.07640625 8.87841797 0.10205078 C9.91869141 0.11107422 10.95896484 0.12009766 12.03076172 0.12939453 C14.60520889 0.15301331 17.17920009 0.18594929 19.75341797 0.22705078 C20.08341797 1.54705078 20.41341797 2.86705078 20.75341797 4.22705078 C21.41341797 4.22705078 22.07341797 4.22705078 22.75341797 4.22705078 C23.41341797 6.53705078 24.07341797 8.84705078 24.75341797 11.22705078 C24.09341797 11.22705078 23.43341797 11.22705078 22.75341797 11.22705078 C22.75341797 10.23705078 22.75341797 9.24705078 22.75341797 8.22705078 C21.76341797 8.22705078 20.77341797 8.22705078 19.75341797 8.22705078 C19.75341797 6.90705078 19.75341797 5.58705078 19.75341797 4.22705078 C19.09341797 4.22705078 18.43341797 4.22705078 17.75341797 4.22705078 C17.75341797 3.23705078 17.75341797 2.24705078 17.75341797 1.22705078 C17.19356201 1.25734375 16.63370605 1.28763672 16.05688477 1.31884766 C13.51827299 1.45574262 10.97959706 1.59141017 8.44091797 1.72705078 C7.55984375 1.77474609 6.67876953 1.82244141 5.77099609 1.87158203 C4.4996582 1.93925781 4.4996582 1.93925781 3.20263672 2.00830078 C2.42235107 2.05019531 1.64206543 2.09208984 0.83813477 2.13525391 C-0.85540599 2.20982603 -2.55140025 2.22705078 -4.24658203 2.22705078 C-2.24658203 0.22705078 -2.24658203 0.22705078 0 0 Z " fill="#5363D8" transform="translate(14.24658203125,2.77294921875)"/>
<path d="M0 0 C0.99 0 1.98 0 3 0 C5.10770759 2.88834003 6 4.38462395 6 8 C3.03 8 0.06 8 -3 8 C-2.45276317 4.62537285 -1.9451 2.91765 0 0 Z " fill="#C4C7EC" transform="translate(40,82)"/>
<path d="M0 0 C-1.65 1.98 -3.3 3.96 -5 6 C-5.54527344 5.86722656 -6.09054688 5.73445312 -6.65234375 5.59765625 C-12.09902987 4.32210753 -17.43120352 3.53036157 -23 3 C-23 2.67 -23 2.34 -23 2 C-17.39 2 -11.78 2 -6 2 C-6 1.34 -6 0.68 -6 0 C-3.50907189 -1.24546405 -2.58919267 -0.7767578 0 0 Z " fill="#231EA3" transform="translate(124,133)"/>
<path d="M0 0 C1.32 0.33 2.64 0.66 4 1 C4 1.66 4 2.32 4 3 C4.66 3 5.32 3 6 3 C6 2.34 6 1.68 6 1 C10.29 1 14.58 1 19 1 C19 1.66 19 2.32 19 3 C14.84373632 4.00926479 10.95634906 4.10239579 6.6875 4.0625 C5.43324219 4.05347656 4.17898437 4.04445312 2.88671875 4.03515625 C1.93410156 4.02355469 0.98148438 4.01195312 0 4 C0 2.68 0 1.36 0 0 Z " fill="#07017F" transform="translate(246,163)"/>
<path d="M0 0 C0.92296875 0.42152344 1.8459375 0.84304687 2.796875 1.27734375 C13.88855454 6.03627382 24.00074962 6.97541137 36 7 C36 7.33 36 7.66 36 8 C32.47932649 8.08782542 28.95893856 8.14066643 25.4375 8.1875 C23.9515332 8.22520508 23.9515332 8.22520508 22.43554688 8.26367188 C16.41924239 8.32363504 12.34931326 7.75911947 7 5 C4.22111387 4.30859478 4.22111387 4.30859478 2 4 C2 3.34 2 2.68 2 2 C1.34 2 0.68 2 0 2 C0 1.34 0 0.68 0 0 Z " fill="#9B99D7" transform="translate(82,126)"/>
<path d="M0 0 C2.27708797 4.08611735 2.40266488 7.90766419 2.5625 12.5 C2.7941215 18.8153003 2.7941215 18.8153003 4 25 C3.01 25 2.02 25 1 25 C-0.27861615 22.44276771 -0.11336609 20.63262898 -0.09765625 17.7734375 C-0.09443359 16.7421875 -0.09121094 15.7109375 -0.08789062 14.6484375 C-0.07951172 13.56820313 -0.07113281 12.48796875 -0.0625 11.375 C-0.05798828 10.28703125 -0.05347656 9.1990625 -0.04882812 8.078125 C-0.03701776 5.38536211 -0.02054778 2.69270812 0 0 Z " fill="#0E23C1" transform="translate(273,17)"/>
<path d="M0 0 C1.670625 0.061875 1.670625 0.061875 3.375 0.125 C4.99449011 2.69713134 5.41908751 3.80169159 5 6.875 C4.79375 7.6175 4.5875 8.36 4.375 9.125 C3.715 9.125 3.055 9.125 2.375 9.125 C2.045 6.485 1.715 3.845 1.375 1.125 C-1.16244315 1.67208727 -1.16244315 1.67208727 -3.625 3.125 C-4.52330839 6.17772465 -4.52330839 6.17772465 -4.625 9.125 C-2.645 9.125 -0.665 9.125 1.375 9.125 C1.375 9.785 1.375 10.445 1.375 11.125 C-0.935 10.795 -3.245 10.465 -5.625 10.125 C-5.8203125 4.0703125 -5.8203125 4.0703125 -5.625 2.125 C-3.625 0.125 -3.625 0.125 0 0 Z " fill="#9A9ED6" transform="translate(42.625,54.875)"/>
<path d="M0 0 C3.07041418 4.09388558 3.39799915 4.6955857 3.3125 9.4375 C3.30863281 10.36433594 3.30476562 11.29117188 3.30078125 12.24609375 C2.98440183 15.14281444 2.2031514 17.35881903 1 20 C0.67 20 0.34 20 0 20 C0 13.4 0 6.8 0 0 Z " fill="#2636A5" transform="translate(210,36)"/>
<path d="M0 0 C6.93 0 13.86 0 21 0 C21 0.33 21 0.66 21 1 C15.39 1 9.78 1 4 1 C3.34 2.65 2.68 4.3 2 6 C1.34 6.66 0.68 7.32 0 8 C-0.66 7.67 -1.32 7.34 -2 7 C-2.33 7.99 -2.66 8.98 -3 10 C-3.33 9.34 -3.66 8.68 -4 8 C-3.67 7.01 -3.34 6.02 -3 5 C-2.01 5 -1.02 5 0 5 C0 3.35 0 1.7 0 0 Z " fill="#1226B9" transform="translate(49,4)"/>
<path d="M0 0 C0.33 0.99 0.66 1.98 1 3 C2.32 2.67 3.64 2.34 5 2 C5 2.66 5 3.32 5 4 C5.66 4.33 6.32 4.66 7 5 C7 6.98 7 8.96 7 11 C4.625 10.3125 4.625 10.3125 2 9 C0.6875 6.375 0.6875 6.375 0 4 C-1.32 4.33 -2.64 4.66 -4 5 C-3.6875 3.0625 -3.6875 3.0625 -3 1 C-2.01 0.67 -1.02 0.34 0 0 Z " fill="#1C1C8C" transform="translate(238,148)"/>
<path d="M0 0 C0.33 0.66 0.66 1.32 1 2 C0.34 2 -0.32 2 -1 2 C-0.34 3.65 0.32 5.3 1 7 C2.98 7 4.96 7 7 7 C7.66 5.35 8.32 3.7 9 2 C8.34 2 7.68 2 7 2 C7.33 1.34 7.66 0.68 8 0 C8.66 0.33 9.32 0.66 10 1 C10.36272727 7.40818182 10.36272727 7.40818182 8.8125 9.9375 C6.29445572 11.41359492 4.87523324 11.49089348 2 11 C-0.3125 9.375 -0.3125 9.375 -2 7 C-2.25 3.75 -2.25 3.75 -2 1 C-1.34 0.67 -0.68 0.34 0 0 Z " fill="#7373C7" transform="translate(233,130)"/>
<path d="M0 0 C0 2.31 0 4.62 0 7 C2.31 7.33 4.62 7.66 7 8 C7 7.34 7 6.68 7 6 C7.66 6.33 8.32 6.66 9 7 C8.67 7.66 8.34 8.32 8 9 C4.37 9 0.74 9 -3 9 C-5 5 -5 5 -5 2 C-2 0 -2 0 0 0 Z " fill="#3645C2" transform="translate(37,58)"/>
<path d="M0 0 C0.94875 0.04125 1.8975 0.0825 2.875 0.125 C1.885 0.455 0.895 0.785 -0.125 1.125 C-0.125 1.785 -0.125 2.445 -0.125 3.125 C-1.115 3.62 -1.115 3.62 -2.125 4.125 C-2.125 5.445 -2.125 6.765 -2.125 8.125 C-0.145 8.125 1.835 8.125 3.875 8.125 C4.205 6.475 4.535 4.825 4.875 3.125 C5.205 3.125 5.535 3.125 5.875 3.125 C5.875 5.105 5.875 7.085 5.875 9.125 C3.41106281 10.67636786 2.19410854 11.15539129 -0.75 10.875 C-3.125 10.125 -3.125 10.125 -5.125 8.125 C-5.375 5.125 -5.375 5.125 -5.125 2.125 C-3.125 0.125 -3.125 0.125 0 0 Z " fill="#A1A7DD" transform="translate(237.125,54.875)"/>
<path d="M0 0 C1.32 0 2.64 0 4 0 C3.42415568 2.38564077 2.77772405 4.66682784 2 7 C1.34 7 0.68 7 0 7 C-0.12375 7.804375 -0.2475 8.60875 -0.375 9.4375 C-0.58125 10.283125 -0.7875 11.12875 -1 12 C-1.99 12.495 -1.99 12.495 -3 13 C-2.88610125 11.20759337 -2.75852313 9.41605165 -2.625 7.625 C-2.55539063 6.62726563 -2.48578125 5.62953125 -2.4140625 4.6015625 C-2 2 -2 2 0 0 Z " fill="#2B26A0" transform="translate(35,155)"/>
<path d="M0 0 C0.66 0 1.32 0 2 0 C2.144375 1.134375 2.28875 2.26875 2.4375 3.4375 C2.61171478 6.80777201 2.61171478 6.80777201 4 8 C4.04063832 9.66617115 4.042721 11.33388095 4 13 C4.66 13 5.32 13 6 13 C7.05771739 14.63064764 8.05273046 16.30280873 9 18 C9.66 18.99 10.32 19.98 11 21 C6.57363935 19.2610726 4.0885103 16.37931013 2.1171875 12.0703125 C0.71428041 8.46089134 -0.53200306 4.86097477 -1 1 C-0.67 0.67 -0.34 0.34 0 0 Z " fill="#ABADE4" transform="translate(71,105)"/>
<path d="M0 0 C0.51554443 0.20858643 1.03108887 0.41717285 1.56225586 0.63208008 C7.93387374 3.00502142 13.80162907 3.53089478 20.5625 3.6875 C21.57119141 3.72166016 22.57988281 3.75582031 23.61914062 3.79101562 C26.07931568 3.87263281 28.53917309 3.94205676 31 4 C31 4.33 31 4.66 31 5 C26.95847085 5.08746928 22.91718695 5.14054982 18.875 5.1875 C17.73289062 5.21263672 16.59078125 5.23777344 15.4140625 5.26367188 C4.9487553 5.35493909 4.9487553 5.35493909 0 2 C0 1.34 0 0.68 0 0 Z " fill="#4A45B5" transform="translate(87,130)"/>
<path d="M0 0 C1.65 0 3.3 0 5 0 C5 4.29 5 8.58 5 13 C2.69 13.33 0.38 13.66 -2 14 C-2 13.34 -2 12.68 -2 12 C-0.02 12 1.96 12 4 12 C3.505 11.195625 3.505 11.195625 3 10.375 C1.77300796 7.4608939 1.85766714 5.13132292 2 2 C1.34 2 0.68 2 0 2 C0 1.34 0 0.68 0 0 Z " fill="#414DC8" transform="translate(273,54)"/>
<path d="M0 0 C0.66 0.33 1.32 0.66 2 1 C1.34 1.66 0.68 2.32 0 3 C0.32198966 6.09926819 0.32198966 6.09926819 1 9 C3.97 9.495 3.97 9.495 7 10 C6.67 10.99 6.34 11.98 6 13 C4.02 13 2.04 13 0 13 C0 12.34 0 11.68 0 11 C-0.66 11 -1.32 11 -2 11 C-2.05399736 9.54207116 -2.09279177 8.08357288 -2.125 6.625 C-2.15980469 5.40683594 -2.15980469 5.40683594 -2.1953125 4.1640625 C-2 2 -2 2 0 0 Z " fill="#3C41B4" transform="translate(233,105)"/>
<path d="M0 0 C1.98 0 3.96 0 6 0 C5 2 5 2 3.0625 2.6875 C0.59365982 3.95791272 0.59365982 3.95791272 -0.25 7.625 C-0.4975 8.73875 -0.745 9.8525 -1 11 C2.3 11 5.6 11 9 11 C9.33 10.01 9.66 9.02 10 8 C10 9.32 10 10.64 10 12 C6.04 12 2.08 12 -2 12 C-2.28571429 3.42857143 -2.28571429 3.42857143 0 0 Z " fill="#3F49BD" transform="translate(233,79)"/>
<path d="M0 0 C0.66 0.33 1.32 0.66 2 1 C1.51917969 1.68449219 1.03835938 2.36898437 0.54296875 3.07421875 C-1.25702122 6.48736428 -1.49378405 8.97692423 -1.6875 12.8125 C-1.78611328 14.55466797 -1.78611328 14.55466797 -1.88671875 16.33203125 C-1.92410156 17.21246094 -1.96148437 18.09289062 -2 19 C-4.18994248 15.71508627 -4.35277339 14.16904361 -4.625 10.3125 C-4.69976562 9.31863281 -4.77453125 8.32476562 -4.8515625 7.30078125 C-4.90054688 6.54152344 -4.94953125 5.78226562 -5 5 C-4.01 5 -3.02 5 -2 5 C-1.34 3.35 -0.68 1.7 0 0 Z " fill="#212DB6" transform="translate(260,74)"/>
<path d="M0 0 C2.97 0.495 2.97 0.495 6 1 C6 2.98 6 4.96 6 7 C4.02 7 2.04 7 0 7 C0 4.69 0 2.38 0 0 Z " fill="#F5F5FC" transform="translate(234,106)"/>
<path d="M0 0 C1.258125 0.12375 2.51625 0.2475 3.8125 0.375 C4.87404297 0.47941406 4.87404297 0.47941406 5.95703125 0.5859375 C8 1 8 1 11 3 C11.29296875 5.1640625 11.29296875 5.1640625 11.1875 7.625 C11.16042969 8.44226562 11.13335937 9.25953125 11.10546875 10.1015625 C11.07066406 10.72804688 11.03585938 11.35453125 11 12 C9.68 11.67 8.36 11.34 7 11 C7.185625 10.2575 7.37125 9.515 7.5625 8.75 C7.99203108 6.05009037 7.85122974 4.55368923 7 2 C4.69 2 2.38 2 0 2 C0 1.34 0 0.68 0 0 Z " fill="#1E26A0" transform="translate(39,53)"/>
<path d="M0 0 C0.66 0 1.32 0 2 0 C2.55353075 11.70615034 2.55353075 11.70615034 -1 16 C-1.66 14.68 -2.32 13.36 -3 12 C-2.34 11.34 -1.68 10.68 -1 10 C-0.53837573 7.56747339 -0.53837573 7.56747339 -0.375 4.875 C-0.30023438 3.96492188 -0.22546875 3.05484375 -0.1484375 2.1171875 C-0.09945312 1.41851562 -0.05046875 0.71984375 0 0 Z " fill="#2127A3" transform="translate(122,93)"/>
<path d="M0 0 C0.66 0 1.32 0 2 0 C2.66 1.98 3.32 3.96 4 6 C6.97 6.495 6.97 6.495 10 7 C10 7.66 10 8.32 10 9 C2.57142857 9.28571429 2.57142857 9.28571429 -1 7 C-0.67 4.69 -0.34 2.38 0 0 Z " fill="#424FCA" transform="translate(230,58)"/>
<path d="M0 0 C0.99 0.33 1.98 0.66 3 1 C3.06058594 1.62648437 3.12117187 2.25296875 3.18359375 2.8984375 C3.26738281 3.71570312 3.35117188 4.53296875 3.4375 5.375 C3.51871094 6.18710937 3.59992187 6.99921875 3.68359375 7.8359375 C3.89090114 10.04272805 3.89090114 10.04272805 5 12 C3.35 12 1.7 12 0 12 C0 8.04 0 4.08 0 0 Z " fill="#080F93" transform="translate(3,54)"/>
<path d="M0 0 C0 2.64 0 5.28 0 8 C2.97 8.495 2.97 8.495 6 9 C6 9.33 6 9.66 6 10 C3.36 10 0.72 10 -2 10 C-2.33 7.03 -2.66 4.06 -3 1 C-1 0 -1 0 0 0 Z " fill="#3C3BB6" transform="translate(37,131)"/>
<path d="M0 0 C1.98 0 3.96 0 6 0 C6 0.66 6 1.32 6 2 C4.35 2 2.7 2 1 2 C1 3.98 1 5.96 1 8 C2.65 8 4.3 8 6 8 C6 8.33 6 8.66 6 9 C3.125 9.125 3.125 9.125 0 9 C-0.66 8.34 -1.32 7.68 -2 7 C-2 5.68 -2 4.36 -2 3 C-1.34 3 -0.68 3 0 3 C0 2.01 0 1.02 0 0 Z " fill="#C9C9E9" transform="translate(234,129)"/>
<path d="M0 0 C0.66 0 1.32 0 2 0 C0.53200483 4.89331723 -1.33028674 9.63043025 -4 14 C-4.99 14.495 -4.99 14.495 -6 15 C-5.67 13.02 -5.34 11.04 -5 9 C-4.34 9 -3.68 9 -3 9 C-3.33 7.35 -3.66 5.7 -4 4 C-3.01 3.67 -2.02 3.34 -1 3 C-0.67 2.01 -0.34 1.02 0 0 Z " fill="#393DA9" transform="translate(157,114)"/>
<path d="M0 0 C2.475 0.495 2.475 0.495 5 1 C5.25 7.625 5.25 7.625 3 11 C2.34 10.67 1.68 10.34 1 10 C1.020625 8.906875 1.04125 7.81375 1.0625 6.6875 C1.18544452 3.05615809 1.18544452 3.05615809 0 0 Z " fill="#14188D" transform="translate(241,104)"/>
<path d="M0 0 C0.66 0.66 1.32 1.32 2 2 C1.625 5.625 1.625 5.625 1 9 C0.71125 8.38125 0.4225 7.7625 0.125 7.125 C-0.93720042 4.86674235 -0.93720042 4.86674235 -3 3 C-5.06874034 2.3574765 -5.06874034 2.3574765 -7 2 C-7 1.34 -7 0.68 -7 0 C-4.29393021 -1.35303489 -2.8671629 -0.7884698 0 0 Z " fill="#1B299F" transform="translate(243,53)"/>
<path d="M0 0 C2 1.8125 2 1.8125 4 4 C4 4.99 4 5.98 4 7 C4.66 7 5.32 7 6 7 C6 8.32 6 9.64 6 11 C7.32 11.33 8.64 11.66 10 12 C8.35 12.33 6.7 12.66 5 13 C1.42988974 9.267612 0.89086558 4.9050011 0 0 Z " fill="#263DD2" transform="translate(229,9)"/>
<path d="M0 0 C0.66 0.33 1.32 0.66 2 1 C1.319375 2.0828125 1.319375 2.0828125 0.625 3.1875 C-1.03254353 5.89263276 -1.03254353 5.89263276 -2 8.5625 C-3.02879159 11.07017951 -4.29466672 12.90709098 -6 15 C-5.68676972 13.32943851 -5.34665557 11.66394675 -5 10 C-4.8659375 9.32582031 -4.731875 8.65164062 -4.59375 7.95703125 C-3.34141791 2.22761194 -3.34141791 2.22761194 0 0 Z " fill="#6865BC" transform="translate(236,151)"/>
<path d="M0 0 C0.33 0 0.66 0 1 0 C1.33 2.31 1.66 4.62 2 7 C3.65 7.33 5.3 7.66 7 8 C6.67 8.66 6.34 9.32 6 10 C3.69 10 1.38 10 -1 10 C-1.125 2.25 -1.125 2.25 0 0 Z " fill="#7173D1" transform="translate(37,106)"/>
<path d="M0 0 C0.99 0.33 1.98 0.66 3 1 C2.835 1.928125 2.67 2.85625 2.5 3.8125 C1.76299718 8.85733621 1.91723185 13.91435711 2 19 C1.34 19 0.68 19 0 19 C0 12.73 0 6.46 0 0 Z " fill="#111D8D" transform="translate(204,75)"/>
<path d="M0 0 C2.46254526 2.1413437 3.69050349 3.69870394 4 7 C3.01 8.485 3.01 8.485 2 10 C1.34 10 0.68 10 0 10 C-0.19412181 8.52168779 -0.38012131 7.04230684 -0.5625 5.5625 C-0.66691406 4.73878906 -0.77132812 3.91507813 -0.87890625 3.06640625 C-0.91886719 2.38449219 -0.95882812 1.70257813 -1 1 C-0.67 0.67 -0.34 0.34 0 0 Z " fill="#0E0E89" transform="translate(48,129)"/>
<path d="M0 0 C1.44197868 2.88395737 1.58833581 5.82430479 2 9 C3.32 9 4.64 9 6 9 C6 9.66 6 10.32 6 11 C3.125 10.6875 3.125 10.6875 0 10 C-2.14915785 6.77626323 -2.38286803 5.73296326 -2 2 C-1.34 1.34 -0.68 0.68 0 0 Z " fill="#3739B3" transform="translate(271,119)"/>
<path d="M0 0 C2.875 0.3125 2.875 0.3125 6 1 C8 4 8 4 8 8 C7.34 8 6.68 8 6 8 C6 8.66 6 9.32 6 10 C5.34 9.67 4.68 9.34 4 9 C4.33 6.69 4.66 4.38 5 2 C3.02 2 1.04 2 -1 2 C-0.67 1.34 -0.34 0.68 0 0 Z " fill="#939DD5" transform="translate(40,30)"/>
<path d="M0 0 C1.32 0.33 2.64 0.66 4 1 C3.67 1.33 3.34 1.66 3 2 C2.76321284 4.69235776 2.57801975 7.36498156 2.4375 10.0625 C2.39431641 10.82111328 2.35113281 11.57972656 2.30664062 12.36132812 C2.20026367 14.24065438 2.09960066 16.12030244 2 18 C1.67 18 1.34 18 1 18 C0.67 12.06 0.34 6.12 0 0 Z " fill="#090689" transform="translate(3,128)"/>
<path d="M0 0 C0.66 0.33 1.32 0.66 2 1 C2 5.95 2 10.9 2 16 C1.34 16 0.68 16 0 16 C0 16.99 0 17.98 0 19 C-0.66 18.67 -1.32 18.34 -2 18 C-1.67 17.2575 -1.34 16.515 -1 15.75 C0.40324139 10.4878448 0.15769562 5.4142163 0 0 Z " fill="#7B80BF" transform="translate(18,78)"/>
<path d="M0 0 C2.0625 0.4375 2.0625 0.4375 4 1 C3.01 1.495 3.01 1.495 2 2 C1.70437633 7.32170494 1.70437633 7.32170494 4 12 C3.01 12 2.02 12 1 12 C-1.69461986 7.95807022 -1.23200889 5.7948504 -1 1 C-0.67 0.67 -0.34 0.34 0 0 Z " fill="#192DBE" transform="translate(230,31)"/>
<path d="M0 0 C0.66 0 1.32 0 2 0 C2 1.32 2 2.64 2 4 C3.32 4 4.64 4 6 4 C6.66 5.98 7.32 7.96 8 10 C5.12470182 8.71107323 2.94991702 7.50703617 1 5 C0.3125 2.3125 0.3125 2.3125 0 0 Z " fill="#2C278A" transform="translate(3,154)"/>
<path d="M0 0 C0.33 0.66 0.66 1.32 1 2 C3.52733235 2.65555119 3.52733235 2.65555119 6 3 C6 3.66 6 4.32 6 5 C5.34 5 4.68 5 4 5 C4.33 6.98 4.66 8.96 5 11 C0 4.63636364 0 4.63636364 0 0 Z " fill="#262488" transform="translate(44,153)"/>
<path d="M0 0 C3 1 3 1 5 3 C5.1953125 5.1640625 5.1953125 5.1640625 5.125 7.625 C5.10695312 8.44226563 5.08890625 9.25953125 5.0703125 10.1015625 C5.03550781 11.04128906 5.03550781 11.04128906 5 12 C4.70351562 11.39285156 4.40703125 10.78570312 4.1015625 10.16015625 C2.98668993 7.89077424 2.98668993 7.89077424 1.375 5.4375 C0 3 0 3 0 0 Z " fill="#1E2BA0" transform="translate(239,79)"/>
<path d="M0 0 C3.375 -0.1875 3.375 -0.1875 7 0 C9.29013653 3.4352048 9.17842973 4.985331 9 9 C8.67 9 8.34 9 8 9 C7.34 7.02 6.68 5.04 6 3 C4.02 3 2.04 3 0 3 C0 2.01 0 1.02 0 0 Z " fill="#5664C0" transform="translate(234,29)"/>
<path d="M0 0 C2.475 0.495 2.475 0.495 5 1 C5.33 1.99 5.66 2.98 6 4 C4.02 3.34 2.04 2.68 0 2 C0 1.34 0 0.68 0 0 Z M-11 2 C-7.37 2 -3.74 2 0 2 C0 2.33 0 2.66 0 3 C-3.63 3 -7.26 3 -11 3 C-11 2.67 -11 2.34 -11 2 Z " fill="#1F31D2" transform="translate(262,4)"/>
<path d="M0 0 C0.33 0.99 0.66 1.98 1 3 C0.34 3 -0.32 3 -1 3 C-1.0825 3.78375 -1.165 4.5675 -1.25 5.375 C-2 8 -2 8 -3.875 9.375 C-6 10 -6 10 -9 9 C-7.35 8.34 -5.7 7.68 -4 7 C-4 6.34 -4 5.68 -4 5 C-3.34 5 -2.68 5 -2 5 C-2 3.68 -2 2.36 -2 1 C-1.34 0.67 -0.68 0.34 0 0 Z " fill="#9D9BD0" transform="translate(275,157)"/>
<path d="M0 0 C0.66 0 1.32 0 2 0 C3.07421875 5.95703125 3.07421875 5.95703125 3 8 C2.01 8.99 1.02 9.98 0 11 C0 7.37 0 3.74 0 0 Z " fill="#0C0D8E" transform="translate(149,96)"/>
<path d="M0 0 C2.475 0.495 2.475 0.495 5 1 C5 1.99 5 2.98 5 4 C5.99 4 6.98 4 8 4 C8 4.99 8 5.98 8 7 C6 6 4 5 2 4 C2 3.34 2 2.68 2 2 C1.34 2 0.68 2 0 2 C0 1.34 0 0.68 0 0 Z " fill="#0C1A9B" transform="translate(10,66)"/>
<path d="M0 0 C1.32 0.33 2.64 0.66 4 1 C4 1.66 4 2.32 4 3 C7.3 3 10.6 3 14 3 C14 3.33 14 3.66 14 4 C9.38 4 4.76 4 0 4 C0 2.68 0 1.36 0 0 Z " fill="#110F76" transform="translate(246,163)"/>
<path d="M0 0 C0.33 0 0.66 0 1 0 C1.433125 1.3921875 1.433125 1.3921875 1.875 2.8125 C2.8875 6.09791667 2.8875 6.09791667 5 9 C3.68 9 2.36 9 1 9 C1 8.34 1 7.68 1 7 C0.34 7 -0.32 7 -1 7 C-1.04254356 5.00045254 -1.04080783 2.99958364 -1 1 C-0.67 0.67 -0.34 0.34 0 0 Z " fill="#2524AE" transform="translate(230,132)"/>
<path d="M0 0 C0.66 0.33 1.32 0.66 2 1 C1.34 2.65 0.68 4.3 0 6 C2.64 6.66 5.28 7.32 8 8 C8 8.33 8 8.66 8 9 C1.84765625 9.09765625 1.84765625 9.09765625 0 9 C-1 8 -1 8 -1.125 4.5 C-1 1 -1 1 0 0 Z " fill="#717FDB" transform="translate(232,32)"/>
<path d="M0 0 C0.66 0 1.32 0 2 0 C1.34 2.31 0.68 4.62 0 7 C-1.32 7.33 -2.64 7.66 -4 8 C-2.25 2.25 -2.25 2.25 0 0 Z " fill="#0A1AB1" transform="translate(243,13)"/>
<path d="M0 0 C0.99 0 1.98 0 3 0 C2.40138258 2.35171131 1.73075648 4.6859378 1 7 C0.01 7.495 0.01 7.495 -1 8 C-1.33 6.35 -1.66 4.7 -2 3 C-1.34 3 -0.68 3 0 3 C0 2.01 0 1.02 0 0 Z " fill="#0B1CAB" transform="translate(5,11)"/>
<path d="M0 0 C2.96175123 0.61277612 4.38058783 1.25372522 7 3 C7 3.66 7 4.32 7 5 C8.32 5.33 9.64 5.66 11 6 C9.234375 6.6796875 9.234375 6.6796875 7 7 C5.078125 5.8203125 5.078125 5.8203125 3.25 4.125 C2.63640625 3.57070312 2.0228125 3.01640625 1.390625 2.4453125 C0 1 0 1 0 0 Z " fill="#3033B0" transform="translate(259,97)"/>
<path d="M0 0 C0.66 0.33 1.32 0.66 2 1 C1.34 1.66 0.68 2.32 0 3 C-0.99 3 -1.98 3 -3 3 C-3.0825 3.598125 -3.165 4.19625 -3.25 4.8125 C-4.20455872 7.5966296 -5.57132271 8.43311142 -8 10 C-7.34 8.02 -6.68 6.04 -6 4 C-5.34 4 -4.68 4 -4 4 C-4 3.34 -4 2.68 -4 2 C-2.125 0.9375 -2.125 0.9375 0 0 Z " fill="#626DCB" transform="translate(268,68)"/>
<path d="M0 0 C0.99 0.33 1.98 0.66 3 1 C3 3.31 3 5.62 3 8 C4.32 8.33 5.64 8.66 7 9 C4.625 9.1875 4.625 9.1875 2 9 C-0.29013653 5.5647952 -0.17842973 4.014669 0 0 Z " fill="#A3AAEA" transform="translate(271,45)"/>
<path d="M0 0 C0.99 0.33 1.98 0.66 3 1 C3 3.31 3 5.62 3 8 C1.68 8.33 0.36 8.66 -1 9 C-0.67 6.03 -0.34 3.06 0 0 Z " fill="#15158E" transform="translate(243,130)"/>
<path d="M0 0 C2.95929119 2.75520215 5.03681826 5.46627288 7 9 C4.28902773 8.62607279 3.17999533 8.18642373 1.25 6.1875 C0 4 0 4 0 0 Z " fill="#2E31AE" transform="translate(71,115)"/>
<path d="M0 0 C0.99 0 1.98 0 3 0 C3.66 1.98 4.32 3.96 5 6 C3.35 5.67 1.7 5.34 0 5 C0 3.35 0 1.7 0 0 Z " fill="#F0F1FA" transform="translate(40,82)"/>
<path d="M0 0 C0 3 0 3 -1 5 C-1.99 5 -2.98 5 -4 5 C-4 5.99 -4 6.98 -4 8 C-4.99 8.33 -5.98 8.66 -7 9 C-5.64978174 4.58110387 -3.73884332 2.65654657 0 0 Z " fill="#4E5CBF" transform="translate(9,6)"/>
<path d="M0 0 C1.13643966 3.40931897 0.86747764 4.00335456 -0.4375 7.1875 C-0.86869141 8.26064453 -0.86869141 8.26064453 -1.30859375 9.35546875 C-1.53675781 9.89816406 -1.76492187 10.44085938 -2 11 C-2.33 11 -2.66 11 -3 11 C-3.36923077 4.6 -3.36923077 4.6 -1.5 1.5625 C-1.005 1.046875 -0.51 0.53125 0 0 Z " fill="#231C9F" transform="translate(232,155)"/>
<path d="M0 0 C0.66 0 1.32 0 2 0 C2.33 1.65 2.66 3.3 3 5 C2.01 4.67 1.02 4.34 0 4 C0 4.66 0 5.32 0 6 C-0.66 6 -1.32 6 -2 6 C-2.33 6.99 -2.66 7.98 -3 9 C-2.44271087 5.65626525 -1.64826111 2.96687001 0 0 Z " fill="#C8C9E4" transform="translate(237,152)"/>
<path d="M0 0 C0.33 0 0.66 0 1 0 C1.50559908 1.43554025 2.0042749 2.8735202 2.5 4.3125 C2.7784375 5.11300781 3.056875 5.91351563 3.34375 6.73828125 C4 9 4 9 4 12 C2 10.5 2 10.5 0 8 C-0.35800135 5.24128373 -0.18660165 2.79902476 0 0 Z " fill="#5B61CE" transform="translate(69,105)"/>
<path d="M0 0 C0.66 0 1.32 0 2 0 C2.33 2.64 2.66 5.28 3 8 C1.35 8 -0.3 8 -2 8 C-1.34 5.36 -0.68 2.72 0 0 Z " fill="#101FB0" transform="translate(273,56)"/>
<path d="M0 0 C0.33 0 0.66 0 1 0 C1.66 2.64 2.32 5.28 3 8 C1.68 8 0.36 8 -1 8 C-1.04241723 5.66705225 -1.04092937 3.33297433 -1 1 C-0.67 0.67 -0.34 0.34 0 0 Z " fill="#313ECB" transform="translate(270,46)"/>
<path d="M0 0 C0.99 0 1.98 0 3 0 C5.21538462 6.4 5.21538462 6.4 4.125 9.4375 C3.75375 9.953125 3.3825 10.46875 3 11 C2.51171875 9.01432292 2.0234375 7.02864583 1.53515625 5.04296875 C1.08989295 3.34316798 0.55566015 1.66698046 0 0 Z " fill="#0A1DA8" transform="translate(241,29)"/>
<path d="M0 0 C3.33571429 1.11190476 3.58417079 1.46320673 5.1875 4.375 C5.70376953 5.28378906 5.70376953 5.28378906 6.23046875 6.2109375 C7 8 7 8 7 11 C6.34 11 5.68 11 5 11 C3.35 7.37 1.7 3.74 0 0 Z " fill="#9AA4EC" transform="translate(271,7)"/>
<path d="M0 0 C0.66 0 1.32 0 2 0 C3 7.75 3 7.75 3 10 C2.34 10 1.68 10 1 10 C0.67 6.7 0.34 3.4 0 0 Z " fill="#050890" transform="translate(7,109)"/>
<path d="M0 0 C0.66 0 1.32 0 2 0 C2 0.99 2 1.98 2 3 C-1.13498292 4.85776765 -3.37471432 5.20140476 -7 5 C-5.75 3.5 -5.75 3.5 -4 2 C-2.68 2 -1.36 2 0 2 C0 1.34 0 0.68 0 0 Z " fill="#0E1195" transform="translate(118,106)"/>
<path d="M0 0 C1.32 0 2.64 0 4 0 C4.66 1.65 5.32 3.3 6 5 C5.01 5.66 4.02 6.32 3 7 C3 5.35 3 3.7 3 2 C2.01 1.67 1.02 1.34 0 1 C0 0.67 0 0.34 0 0 Z " fill="#0D128E" transform="translate(46,105)"/>
<path d="M0 0 C1.98 0 3.96 0 6 0 C5.67 0.66 5.34 1.32 5 2 C3.68 1.67 2.36 1.34 1 1 C0.87625 1.61875 0.7525 2.2375 0.625 2.875 C0 5 0 5 -2 7 C-1.125 2.25 -1.125 2.25 0 0 Z " fill="#252EB2" transform="translate(38,79)"/>
</svg>
